<?xml version="1.0" encoding="UTF-8" standalone="no"?>
<!-- Generator: Adobe Illustrator 16.0.0, SVG Export Plug-In . SVG Version: 6.00 Build 0)  -->

<svg
   xmlns:dc="http://purl.org/dc/elements/1.1/"
   xmlns:cc="http://creativecommons.org/ns#"
   xmlns:rdf="http://www.w3.org/1999/02/22-rdf-syntax-ns#"
   xmlns:svg="http://www.w3.org/2000/svg"
   xmlns="http://www.w3.org/2000/svg"
   xmlns:sodipodi="http://sodipodi.sourceforge.net/DTD/sodipodi-0.dtd"
   xmlns:inkscape="http://www.inkscape.org/namespaces/inkscape"
   version="1.1"
   id="svg12553"
   x="0px"
   y="0px"
   width="675"
   height="380"
   viewBox="0 0 675 380"
   enable-background="new 0 0 135 380"
   xml:space="preserve"
   sodipodi:docname="midi_player.svg"
   inkscape:version="0.92.3 (2405546, 2018-03-11)"><metadata
   id="metadata1278"><rdf:RDF><cc:Work
       rdf:about=""><dc:format>image/svg+xml</dc:format><dc:type
         rdf:resource="http://purl.org/dc/dcmitype/StillImage" /><dc:title></dc:title></cc:Work></rdf:RDF></metadata><defs
   id="defs1276" /><sodipodi:namedview
   pagecolor="#ffffff"
   bordercolor="#666666"
   borderopacity="1"
   objecttolerance="10"
   gridtolerance="10"
   guidetolerance="10"
   inkscape:pageopacity="0"
   inkscape:pageshadow="2"
   inkscape:window-width="1366"
   inkscape:window-height="715"
   id="namedview1274"
   showgrid="false"
   inkscape:zoom="1.0160008"
   inkscape:cx="294.86876"
   inkscape:cy="190"
   inkscape:window-x="-8"
   inkscape:window-y="-8"
   inkscape:window-maximized="1"
   inkscape:current-layer="svg12553"
   showguides="false"
   inkscape:guide-bbox="true"><sodipodi:guide
     position="57.294114,23.417"
     orientation="0,1"
     id="guide897"
     inkscape:locked="false" /><sodipodi:guide
     position="-83.661352,468.50357"
     orientation="-0.70710678,0.70710678"
     id="guide870"
     inkscape:locked="false" /></sodipodi:namedview>
<path
   id="path33453"
   d="M -0.028,0.044 H 676.36616 V 379.956 H -0.028 Z"
   inkscape:connector-curvature="0"
   style="stroke-width:2.23791194" />
<g
   id="g13122"
   transform="matrix(0.27602379,0,0,0.27602379,354.09618,57.736346)">
	<g
   id="g13178"
   transform="translate(-167.07644,-20.557569)">
		<g
   id="g13224"
   transform="translate(-99.2314,6.0949065)">
			<g
   id="path30351">
			</g>
		</g>
	</g>
</g>

<g
   id="text4860">
</g>
<g
   id="flowRoot1009">
</g>






<rect
   x="9.5"
   y="304.85501"
   width="85.183998"
   height="10.895"
   id="rect1121" />





<path
   stroke-miterlimit="10"
   d="m 668.96425,317.97757 c 0,8.27562 -6.75771,14.98601 -15.07327,14.98601 H 23.695361 c -8.32087,0 -15.0679531,-6.71039 -15.0679531,-14.98601 V 54.56943 c 0,-8.275629 6.7470831,-14.986022 15.0679531,-14.986022 H 653.89098 c 8.31556,0 15.07327,6.710393 15.07327,14.986022 z"
   id="path1161"
   inkscape:connector-curvature="0"
   style="fill:#232c36;stroke:#231f20;stroke-width:10.60475063;stroke-miterlimit:10" />





<g
   id="g1181"
   transform="translate(-68.723194,7.5757852)">
	<path
   stroke-miterlimit="10"
   d="m 15.081,307.841 h -1.629 v -1.151 h 4.663 v 1.151 h -1.656 v 4.915 h -1.377 z"
   id="path1173"
   inkscape:connector-curvature="0"
   style="fill:#ffffff;stroke:#ffffff;stroke-width:0.5;stroke-miterlimit:10" />
	<path
   stroke-miterlimit="10"
   d="m 18.842,306.77 c 0.441,-0.067 1.098,-0.127 1.828,-0.127 0.9,0 1.53,0.137 1.962,0.479 0.36,0.288 0.558,0.711 0.558,1.271 0,0.773 -0.549,1.31 -1.071,1.493 v 0.027 c 0.423,0.171 0.657,0.575 0.811,1.134 0.189,0.686 0.378,1.479 0.495,1.711 H 22.02 c -0.099,-0.171 -0.243,-0.666 -0.423,-1.412 -0.162,-0.758 -0.423,-0.965 -0.981,-0.974 h -0.414 v 2.386 h -1.359 z m 1.36,2.61 h 0.54 c 0.684,0 1.089,-0.342 1.089,-0.873 0,-0.559 -0.378,-0.838 -1.008,-0.847 -0.333,0 -0.522,0.027 -0.621,0.045 z"
   id="path1175"
   inkscape:connector-curvature="0"
   style="fill:#ffffff;stroke:#ffffff;stroke-width:0.5;stroke-miterlimit:10" />
	<path
   stroke-miterlimit="10"
   d="m 25.556,306.688 v 6.067 h -1.377 v -6.067 z"
   id="path1177"
   inkscape:connector-curvature="0"
   style="fill:#ffffff;stroke:#ffffff;stroke-width:0.5;stroke-miterlimit:10" />
	<path
   stroke-miterlimit="10"
   d="m 31.812,312.477 c -0.423,0.146 -1.224,0.344 -2.025,0.344 -1.107,0 -1.909,-0.275 -2.467,-0.815 -0.558,-0.521 -0.864,-1.312 -0.855,-2.206 0.009,-2.021 1.477,-3.169 3.466,-3.169 0.783,0 1.386,0.149 1.684,0.297 l -0.288,1.103 c -0.333,-0.146 -0.748,-0.262 -1.414,-0.262 -1.144,0 -2.008,0.646 -2.008,1.963 0,1.252 0.783,1.986 1.909,1.986 0.315,0 0.567,-0.033 0.675,-0.091 v -1.271 h -0.937 v -1.069 h 2.26 z"
   id="path1179"
   inkscape:connector-curvature="0"
   style="fill:#ffffff;stroke:#ffffff;stroke-width:0.5;stroke-miterlimit:10" />
</g>

<g
   id="g1203"
   transform="translate(102.55514,42.408)">
	<path
   stroke-miterlimit="10"
   d="m 40.972,311.346 c 0.369,0.188 0.937,0.379 1.521,0.379 0.63,0 0.963,-0.263 0.963,-0.658 0,-0.377 -0.288,-0.594 -1.018,-0.854 -1.008,-0.352 -1.666,-0.908 -1.666,-1.791 0,-1.035 0.864,-1.828 2.296,-1.828 0.684,0 1.188,0.146 1.548,0.309 l -0.306,1.104 c -0.243,-0.114 -0.675,-0.286 -1.269,-0.286 -0.594,0 -0.882,0.271 -0.882,0.586 0,0.387 0.342,0.56 1.125,0.854 1.072,0.396 1.576,0.955 1.576,1.812 0,1.021 -0.783,1.881 -2.449,1.881 -0.693,0 -1.377,-0.181 -1.72,-0.369 z"
   id="path1193"
   inkscape:connector-curvature="0"
   style="fill:#ffffff;stroke:#ffffff;stroke-width:0.5;stroke-miterlimit:10" />
	<path
   stroke-miterlimit="10"
   d="m 46.958,307.844 h -1.629 v -1.152 h 4.663 v 1.152 h -1.656 v 4.915 h -1.377 z"
   id="path1195"
   inkscape:connector-curvature="0"
   style="fill:#ffffff;stroke:#ffffff;stroke-width:0.5;stroke-miterlimit:10" />
	<path
   stroke-miterlimit="10"
   d="m 51.485,311.201 -0.432,1.558 H 49.63 l 1.855,-6.067 h 1.8 l 1.881,6.067 H 53.69 l -0.468,-1.558 z m 1.539,-1.026 -0.378,-1.286 c -0.108,-0.361 -0.216,-0.812 -0.306,-1.171 h -0.018 c -0.09,0.359 -0.18,0.818 -0.279,1.171 l -0.36,1.286 z"
   id="path1197"
   inkscape:connector-curvature="0"
   style="fill:#ffffff;stroke:#ffffff;stroke-width:0.5;stroke-miterlimit:10" />
	<path
   stroke-miterlimit="10"
   d="m 55.975,306.771 c 0.441,-0.071 1.098,-0.127 1.828,-0.127 0.9,0 1.53,0.137 1.962,0.479 0.36,0.288 0.558,0.711 0.558,1.27 0,0.774 -0.549,1.311 -1.071,1.494 v 0.027 c 0.423,0.171 0.657,0.576 0.81,1.134 0.189,0.685 0.378,1.478 0.496,1.711 h -1.405 c -0.099,-0.171 -0.243,-0.666 -0.423,-1.413 -0.162,-0.757 -0.423,-0.964 -0.981,-0.973 h -0.414 v 2.386 h -1.359 z m 1.359,2.612 h 0.54 c 0.684,0 1.089,-0.342 1.089,-0.873 0,-0.559 -0.378,-0.838 -1.008,-0.847 -0.333,0 -0.522,0.026 -0.621,0.045 z"
   id="path1199"
   inkscape:connector-curvature="0"
   style="fill:#ffffff;stroke:#ffffff;stroke-width:0.5;stroke-miterlimit:10" />
	<path
   stroke-miterlimit="10"
   d="m 62.482,307.844 h -1.629 v -1.152 h 4.663 v 1.152 H 63.86 v 4.915 h -1.377 z"
   id="path1201"
   inkscape:connector-curvature="0"
   style="fill:#ffffff;stroke:#ffffff;stroke-width:0.5;stroke-miterlimit:10" />
</g>











<g
   aria-label="Midi Player"
   transform="matrix(1.080608,0,0,0.92540496,0,4)"
   style="font-style:normal;font-variant:normal;font-weight:bold;font-stretch:normal;font-size:17.75922203px;line-height:1.25;font-family:Arial;-inkscape-font-specification:'Arial, Bold';font-variant-ligatures:normal;font-variant-caps:normal;font-variant-numeric:normal;font-feature-settings:normal;text-align:center;letter-spacing:0px;word-spacing:0px;writing-mode:lr-tb;text-anchor:middle;fill:#000000;fill-opacity:0.98039216;stroke:none;stroke-width:2.66388321"
   id="text887"><path
     d="M 16.081007,26.89669 V 14.184279 h 3.841472 l 2.306618,8.671495 2.280603,-8.671495 h 3.850144 V 26.89669 H 25.975183 V 16.889785 L 23.451778,26.89669 H 20.980402 L 18.465668,16.889785 V 26.89669 Z"
     style="fill:#ffffff;fill-opacity:1;stroke-width:2.66388321"
     id="path907"
     inkscape:connector-curvature="0" /><path
     d="m 30.909264,16.438867 v -2.254588 h 2.43669 v 2.254588 z m 0,10.457823 v -9.209127 h 2.43669 v 9.209127 z"
     style="fill:#ffffff;fill-opacity:1;stroke-width:2.66388321"
     id="path909"
     inkscape:connector-curvature="0" /><path
     d="m 44.28071,26.89669 h -2.26326 v -1.352753 q -0.563647,0.789106 -1.33541,1.179323 -0.763092,0.381546 -1.543526,0.381546 -1.586884,0 -2.72285,-1.27471 -1.127294,-1.283381 -1.127294,-3.572656 0,-2.341303 1.10128,-3.555313 1.10128,-1.22268 2.78355,-1.22268 1.543526,0 2.67082,1.283381 v -4.578549 h 2.43669 z m -6.503621,-4.804008 q 0,1.474154 0.40756,2.133188 0.589662,0.953864 1.647584,0.953864 0.841135,0 1.430797,-0.711062 0.589662,-0.719734 0.589662,-2.14186 0,-1.586883 -0.572319,-2.280603 -0.572319,-0.702391 -1.465483,-0.702391 -0.867149,0 -1.456811,0.69372 -0.58099,0.685048 -0.58099,2.055144 z"
     style="fill:#ffffff;fill-opacity:1;stroke-width:2.66388321"
     id="path911"
     inkscape:connector-curvature="0" /><path
     d="m 46.691386,16.438867 v -2.254588 h 2.436691 v 2.254588 z m 0,10.457823 v -9.209127 h 2.436691 v 9.209127 z"
     style="fill:#ffffff;fill-opacity:1;stroke-width:2.66388321"
     id="path913"
     inkscape:connector-curvature="0" /><path
     d="M 56.559548,26.89669 V 14.184279 h 4.11896 q 2.341304,0 3.052367,0.190772 1.092608,0.28616 1.829685,1.248696 0.737077,0.953864 0.737077,2.471376 0,1.170652 -0.424903,1.968429 -0.424903,0.797778 -1.083937,1.257367 -0.650362,0.450918 -1.326739,0.598333 -0.919178,0.182102 -2.662149,0.182102 h -1.673598 v 4.795336 z m 2.566763,-10.561881 v 3.607342 h 1.404782 q 1.517511,0 2.02913,-0.199444 0.511618,-0.199445 0.797777,-0.624348 0.294831,-0.424903 0.294831,-0.98855 0,-0.69372 -0.40756,-1.144638 -0.40756,-0.450917 -1.031908,-0.563647 -0.459589,-0.08672 -1.847029,-0.08672 z"
     style="fill:#ffffff;fill-opacity:1;stroke-width:2.66388321"
     id="path915"
     inkscape:connector-curvature="0" /><path
     d="M 68.404807,26.89669 V 14.184279 h 2.43669 V 26.89669 Z"
     style="fill:#ffffff;fill-opacity:1;stroke-width:2.66388321"
     id="path917"
     inkscape:connector-curvature="0" /><path
     d="m 75.151233,20.497127 -2.211232,-0.398889 q 0.372875,-1.33541 1.283382,-1.977101 0.910507,-0.64169 2.705506,-0.64169 1.630241,0 2.428019,0.390217 0.797777,0.381546 1.118623,0.979879 0.329516,0.589662 0.329516,2.176545 l -0.02601,2.844251 q 0,1.214009 0.112729,1.794999 0.121401,0.572319 0.442247,1.231352 h -2.410676 q -0.09539,-0.242801 -0.23413,-0.719734 -0.0607,-0.216787 -0.08672,-0.286159 -0.624348,0.607005 -1.335411,0.910507 -0.711062,0.303502 -1.517511,0.303502 -1.422126,0 -2.245918,-0.771763 -0.81512,-0.771763 -0.81512,-1.951086 0,-0.780435 0.372874,-1.387439 0.372874,-0.615677 1.04058,-0.936522 0.676376,-0.329517 1.942415,-0.572319 1.708284,-0.320845 2.367318,-0.598333 v -0.242802 q 0,-0.702391 -0.34686,-0.997222 -0.34686,-0.303502 -1.309396,-0.303502 -0.650362,0 -1.014565,0.260145 -0.364203,0.251473 -0.58966,0.893164 z m 3.260482,1.977101 q -0.468261,0.156087 -1.482826,0.372874 -1.014565,0.216788 -1.326739,0.424903 -0.476932,0.338189 -0.476932,0.858478 0,0.511619 0.381546,0.884493 0.381546,0.372874 0.971207,0.372874 0.659034,0 1.257367,-0.433575 0.442246,-0.329516 0.58099,-0.806449 0.09539,-0.312173 0.09539,-1.187994 z"
     style="fill:#ffffff;fill-opacity:1;stroke-width:2.66388321"
     id="path919"
     inkscape:connector-curvature="0" /><path
     d="m 82.062412,17.687563 h 2.592777 l 2.202559,6.538307 2.150531,-6.538307 h 2.523405 l -3.25181,8.862268 -0.580991,1.604226 q -0.320845,0.806449 -0.615676,1.231352 -0.286159,0.424904 -0.667705,0.685049 -0.372874,0.268816 -0.92785,0.416231 -0.546304,0.147416 -1.240024,0.147416 -0.702391,0 -1.378767,-0.147416 L 82.652073,28.57896 q 0.572319,0.11273 1.031908,0.11273 0.849807,0 1.257367,-0.502947 0.40756,-0.494275 0.624348,-1.266038 z"
     style="fill:#ffffff;fill-opacity:1;stroke-width:2.66388321"
     id="path921"
     inkscape:connector-curvature="0" /><path
     d="m 98.434196,23.965725 2.428014,0.40756 q -0.46826,1.335411 -1.482821,2.037802 -1.005894,0.693719 -2.523406,0.693719 -2.402004,0 -3.555313,-1.56954 -0.910507,-1.257367 -0.910507,-3.173768 0,-2.289274 1.196667,-3.581327 1.196666,-1.300724 3.026352,-1.300724 2.055144,0 3.243139,1.361424 1.187999,1.352754 1.135969,4.153647 h -6.104736 q 0.02602,1.083936 0.589662,1.690941 0.563647,0.598333 1.404782,0.598333 0.572319,0 0.962536,-0.312174 0.390217,-0.312173 0.589662,-1.005893 z M 98.57294,21.50302 q -0.02602,-1.057922 -0.546305,-1.604226 -0.520289,-0.554976 -1.266038,-0.554976 -0.797778,0 -1.318067,0.58099 -0.52029,0.58099 -0.511618,1.578212 z"
     style="fill:#ffffff;fill-opacity:1;stroke-width:2.66388321"
     id="path923"
     inkscape:connector-curvature="0" /><path
     d="m 105.31936,26.89669 h -2.43669 v -9.209127 h 2.26326 v 1.309395 q 0.58099,-0.92785 1.04058,-1.222681 0.46826,-0.29483 1.05793,-0.29483 0.83246,0 1.60422,0.459589 l -0.75442,2.124516 q -0.61567,-0.398889 -1.14463,-0.398889 -0.51162,0 -0.86715,0.28616 -0.35554,0.277488 -0.56365,1.014565 -0.19945,0.737077 -0.19945,3.087052 z"
     style="fill:#ffffff;fill-opacity:1;stroke-width:2.66388321"
     id="path925"
     inkscape:connector-curvature="0" /></g>


<g
   aria-label="CLOCK IN"
   style="font-style:normal;font-variant:normal;font-weight:bold;font-stretch:normal;font-size:6.66666651px;line-height:1.25;font-family:Arial;-inkscape-font-specification:'Arial, Bold';font-variant-ligatures:normal;font-variant-caps:normal;font-variant-numeric:normal;font-feature-settings:normal;text-align:center;letter-spacing:0px;word-spacing:0px;writing-mode:lr-tb;text-anchor:middle;fill:#ffffff;fill-opacity:1;stroke:none"
   id="text895"><path
     d="m 10.173906,353.70626 1.223958,0.47396 q -0.286458,1.28125 -0.953125,1.875 -0.6666665,0.58854 -1.6406249,0.58854 -1.2239583,0 -1.984375,-0.94271 -0.8750001,-1.08854 -0.8750001,-2.9375 0,-1.95313 0.8802084,-3.05729 0.765625,-0.95834 2.0572917,-0.95834 1.0520834,0 1.7604169,0.71875 0.505208,0.51042 0.739583,1.51563 l -1.25,0.36458 q -0.119792,-0.61979 -0.4791665,-0.94791 -0.3541667,-0.33334 -0.8385417,-0.33334 -0.6927084,0 -1.1302084,0.60417 -0.4375,0.60417 -0.4375,1.99479 0,1.44271 0.4270834,2.05208 0.4270833,0.60938 1.109375,0.60938 0.5,0 0.8645834,-0.38542 0.3645828,-0.39062 0.5260418,-1.23437 z"
     style="font-style:normal;font-variant:normal;font-weight:bold;font-stretch:condensed;font-size:10.66666698px;font-family:Arial;-inkscape-font-specification:'Arial, Bold Condensed';font-variant-ligatures:normal;font-variant-caps:normal;font-variant-numeric:normal;font-feature-settings:normal;text-align:center;writing-mode:lr-tb;text-anchor:middle;fill:#ffffff;fill-opacity:1"
     id="path948"
     inkscape:connector-curvature="0" /><path
     d="m 12.512447,356.51355 v -7.57292 h 1.260417 v 6.28646 h 3.145834 v 1.28646 z"
     style="font-style:normal;font-variant:normal;font-weight:bold;font-stretch:condensed;font-size:10.66666698px;font-family:Arial;-inkscape-font-specification:'Arial, Bold Condensed';font-variant-ligatures:normal;font-variant-caps:normal;font-variant-numeric:normal;font-feature-settings:normal;text-align:center;writing-mode:lr-tb;text-anchor:middle;fill:#ffffff;fill-opacity:1"
     id="path950"
     inkscape:connector-curvature="0" /><path
     d="m 17.580156,352.74272 q 0,-1.36459 0.401042,-2.2448 0.40625,-0.88541 1.057291,-1.3177 0.651042,-0.4323 1.578125,-0.4323 1.34375,0 2.187501,1.02605 0.848958,1.02604 0.848958,2.92187 0,1.91667 -0.895833,2.99479 -0.786459,0.95313 -2.135417,0.95313 -1.359375,0 -2.145834,-0.94271 -0.895833,-1.07813 -0.895833,-2.95833 z m 1.302083,-0.0521 q 0,1.31771 0.5,1.97917 0.5,0.65625 1.239584,0.65625 0.744791,0 1.234375,-0.65104 0.489583,-0.65625 0.489583,-2.01042 0,-1.32812 -0.479167,-1.96354 -0.473958,-0.63542 -1.244791,-0.63542 -0.770834,0 -1.255209,0.64063 -0.484375,0.64062 -0.484375,1.98437 z"
     style="font-style:normal;font-variant:normal;font-weight:bold;font-stretch:condensed;font-size:10.66666698px;font-family:Arial;-inkscape-font-specification:'Arial, Bold Condensed';font-variant-ligatures:normal;font-variant-caps:normal;font-variant-numeric:normal;font-feature-settings:normal;text-align:center;writing-mode:lr-tb;text-anchor:middle;fill:#ffffff;fill-opacity:1"
     id="path952"
     inkscape:connector-curvature="0" /><path
     d="m 28.653074,353.70626 1.223958,0.47396 q -0.286458,1.28125 -0.953125,1.875 -0.666667,0.58854 -1.640625,0.58854 -1.223958,0 -1.984375,-0.94271 -0.875,-1.08854 -0.875,-2.9375 0,-1.95313 0.880208,-3.05729 0.765625,-0.95834 2.057292,-0.95834 1.052083,0 1.760417,0.71875 0.505208,0.51042 0.739583,1.51563 l -1.25,0.36458 q -0.119792,-0.61979 -0.479167,-0.94791 -0.354166,-0.33334 -0.838541,-0.33334 -0.692709,0 -1.130209,0.60417 -0.4375,0.60417 -0.4375,1.99479 0,1.44271 0.427084,2.05208 0.427083,0.60938 1.109375,0.60938 0.5,0 0.864583,-0.38542 0.364583,-0.39062 0.526042,-1.23437 z"
     style="font-style:normal;font-variant:normal;font-weight:bold;font-stretch:condensed;font-size:10.66666698px;font-family:Arial;-inkscape-font-specification:'Arial, Bold Condensed';font-variant-ligatures:normal;font-variant-caps:normal;font-variant-numeric:normal;font-feature-settings:normal;text-align:center;writing-mode:lr-tb;text-anchor:middle;fill:#ffffff;fill-opacity:1"
     id="path954"
     inkscape:connector-curvature="0" /><path
     d="m 30.970782,356.51355 v -7.63542 h 1.260417 v 3.39063 l 2.557291,-3.39063 h 1.703125 l -2.359375,2.97396 2.484375,4.66146 h -1.635416 l -1.723959,-3.58333 -1.026041,1.27604 v 2.30729 z"
     style="font-style:normal;font-variant:normal;font-weight:bold;font-stretch:condensed;font-size:10.66666698px;font-family:Arial;-inkscape-font-specification:'Arial, Bold Condensed';font-variant-ligatures:normal;font-variant-caps:normal;font-variant-numeric:normal;font-feature-settings:normal;text-align:center;writing-mode:lr-tb;text-anchor:middle;fill:#ffffff;fill-opacity:1"
     id="path956"
     inkscape:connector-curvature="0" /><path
     d="m 39.668699,356.51355 v -7.63542 h 1.260416 v 7.63542 z"
     style="font-style:normal;font-variant:normal;font-weight:bold;font-stretch:condensed;font-size:10.66666698px;font-family:Arial;-inkscape-font-specification:'Arial, Bold Condensed';font-variant-ligatures:normal;font-variant-caps:normal;font-variant-numeric:normal;font-feature-settings:normal;text-align:center;writing-mode:lr-tb;text-anchor:middle;fill:#ffffff;fill-opacity:1"
     id="path958"
     inkscape:connector-curvature="0" /><path
     d="m 42.158282,356.51355 v -7.63542 h 1.229167 l 2.5625,5.09896 v -5.09896 h 1.177083 v 7.63542 h -1.270833 l -2.520834,-4.97917 v 4.97917 z"
     style="font-style:normal;font-variant:normal;font-weight:bold;font-stretch:condensed;font-size:10.66666698px;font-family:Arial;-inkscape-font-specification:'Arial, Bold Condensed';font-variant-ligatures:normal;font-variant-caps:normal;font-variant-numeric:normal;font-feature-settings:normal;text-align:center;writing-mode:lr-tb;text-anchor:middle;fill:#ffffff;fill-opacity:1"
     id="path960"
     inkscape:connector-curvature="0" /></g><g
   aria-label="V/OCT"
   style="font-style:normal;font-variant:normal;font-weight:bold;font-stretch:condensed;font-size:10.66666698px;line-height:1.25;font-family:Arial;-inkscape-font-specification:'Arial, Bold Condensed';font-variant-ligatures:normal;font-variant-caps:normal;font-variant-numeric:normal;font-feature-settings:normal;text-align:center;letter-spacing:0px;word-spacing:0px;writing-mode:lr-tb;text-anchor:middle;fill:#ffffff;fill-opacity:1;stroke:none"
   id="text901"><path
     d="m 56.455726,356.37076 -2.234375,-7.63542 h 1.369792 l 1.583333,5.65104 1.53125,-5.65104 h 1.34375 l -2.239583,7.63542 z"
     id="path937"
     inkscape:connector-curvature="0" /><path
     d="m 60.044268,356.50097 1.552083,-7.89584 h 0.901042 l -1.567708,7.89584 z"
     id="path939"
     inkscape:connector-curvature="0" /><path
     d="m 62.877602,352.59992 q 0,-1.36458 0.401042,-2.24479 0.40625,-0.88541 1.057291,-1.31771 0.651042,-0.43229 1.578125,-0.43229 1.34375,0 2.1875,1.02604 0.848959,1.02605 0.848959,2.92188 0,1.91667 -0.895834,2.99479 -0.786458,0.95313 -2.135416,0.95313 -1.359375,0 -2.145834,-0.94271 -0.895833,-1.07813 -0.895833,-2.95834 z m 1.302083,-0.0521 q 0,1.31771 0.5,1.97917 0.5,0.65625 1.239584,0.65625 0.744791,0 1.234375,-0.65104 0.489583,-0.65625 0.489583,-2.01042 0,-1.32813 -0.479167,-1.96354 -0.473958,-0.63542 -1.244791,-0.63542 -0.770834,0 -1.255209,0.64063 -0.484375,0.64062 -0.484375,1.98437 z"
     id="path941"
     inkscape:connector-curvature="0" /><path
     d="m 73.950519,353.56347 1.223958,0.47395 q -0.286458,1.28125 -0.953125,1.875 -0.666667,0.58855 -1.640625,0.58855 -1.223958,0 -1.984375,-0.94271 -0.875,-1.08854 -0.875,-2.9375 0,-1.95313 0.880208,-3.05729 0.765625,-0.95834 2.057292,-0.95834 1.052083,0 1.760417,0.71875 0.505208,0.51042 0.739583,1.51563 l -1.25,0.36458 q -0.119792,-0.61979 -0.479167,-0.94792 -0.354166,-0.33333 -0.838541,-0.33333 -0.692709,0 -1.130209,0.60417 -0.4375,0.60416 -0.4375,1.99479 0,1.44271 0.427084,2.05208 0.427083,0.60938 1.109375,0.60938 0.5,0 0.864583,-0.38542 0.364583,-0.39062 0.526042,-1.23437 z"
     id="path943"
     inkscape:connector-curvature="0" /><path
     d="m 77.66406,356.37076 v -6.34375 h -1.859375 v -1.29167 h 4.973959 v 1.29167 h -1.854167 v 6.34375 z"
     id="path945"
     inkscape:connector-curvature="0" /></g><g
   aria-label="GATE"
   style="font-style:normal;font-variant:normal;font-weight:bold;font-stretch:condensed;font-size:10.66666698px;line-height:1.25;font-family:Arial;-inkscape-font-specification:'Arial, Bold Condensed';font-variant-ligatures:normal;font-variant-caps:normal;font-variant-numeric:normal;font-feature-settings:normal;text-align:center;letter-spacing:0px;word-spacing:0px;writing-mode:lr-tb;text-anchor:middle;fill:#ffffff;fill-opacity:1;stroke:none"
   id="text905"><path
     d="m 102.07078,353.56347 v -1.28646 h 2.72395 v 3.04166 q -0.41145,0.48438 -1.16666,0.83334 -0.75521,0.34896 -1.51563,0.34896 -0.92708,0 -1.63541,-0.45313 -0.708338,-0.45833 -1.125005,-1.36458 -0.411458,-0.91146 -0.411458,-2.14063 0,-1.26041 0.416666,-2.15625 0.421875,-0.89583 1.088547,-1.33854 0.67187,-0.44271 1.60416,-0.44271 1.11979,0 1.79167,0.57292 0.67708,0.56771 0.86979,1.67187 l -1.25,0.28646 q -0.14062,-0.58854 -0.51562,-0.90104 -0.375,-0.3125 -0.89584,-0.3125 -0.80729,0 -1.30729,0.63021 -0.5,0.625 -0.5,1.91146 0,1.38021 0.54167,2.09896 0.46354,0.61979 1.25521,0.61979 0.36979,0 0.76562,-0.17188 0.40104,-0.17708 0.71354,-0.47916 v -0.96875 z"
     id="path928"
     inkscape:connector-curvature="0" /><path
     d="m 111.61244,356.37076 h -1.375 l -0.54687,-1.73438 h -2.5 l -0.51563,1.73438 h -1.34375 l 2.4375,-7.63542 h 1.33854 z m -2.32812,-3.02084 -0.85938,-2.83333 -0.84896,2.83333 z"
     id="path930"
     inkscape:connector-curvature="0" /><path
     d="m 113.05515,356.37076 v -6.34375 h -1.85938 v -1.29167 h 4.97396 v 1.29167 h -1.85416 v 6.34375 z"
     id="path932"
     inkscape:connector-curvature="0" /><path
     d="m 117.01348,356.37076 v -7.63542 h 4.64584 v 1.29167 h -3.38542 v 1.69271 h 3.14583 v 1.28645 h -3.14583 v 2.07813 h 3.5 v 1.28646 z"
     id="path934"
     inkscape:connector-curvature="0" /></g></svg>