<?xml version="1.0" encoding="utf-8"?>
<!-- Generator: Adobe Illustrator 16.0.3, SVG Export Plug-In . SVG Version: 6.00 Build 0)  -->
<!DOCTYPE svg PUBLIC "-//W3C//DTD SVG 1.1//EN" "http://www.w3.org/Graphics/SVG/1.1/DTD/svg11.dtd">
<svg version="1.1"
	 id="svg15246" inkscape:version="0.92.2 5c3e80d, 2017-08-06" sodipodi:docname="PJ301M.svg" xmlns:dc="http://purl.org/dc/elements/1.1/" xmlns:cc="http://creativecommons.org/ns#" xmlns:rdf="http://www.w3.org/1999/02/22-rdf-syntax-ns#" xmlns:svg="http://www.w3.org/2000/svg" xmlns:sodipodi="http://sodipodi.sourceforge.net/DTD/sodipodi-0.dtd" xmlns:inkscape="http://www.inkscape.org/namespaces/inkscape"
	 xmlns="http://www.w3.org/2000/svg" xmlns:xlink="http://www.w3.org/1999/xlink" x="0px" y="0px" width="23.686px"
	 height="23.686px" viewBox="0 0 23.686 23.686" enable-background="new 0 0 23.686 23.686" xml:space="preserve">
<filter  id="alpha" y="0" x="0" height="1" width="1" filterUnits="objectBoundingBox">
	<feColorMatrix  in="SourceGraphic" values="0 0 0 0 1 0 0 0 0 1 0 0 0 0 1 0 0 0 1 0" id="feColorMatrix4149" type="matrix">
		</feColorMatrix>
</filter>
<g id="g4842" transform="matrix(0.26458333,0,0,0.26458333,89.358789,128.57765)" filter="url(#alpha)">
	<g id="rect4840_1_">
		<rect x="3801.705" y="4384.921" opacity="0.15" width="2289.652" height="2513.624"/>
	</g>
</g>
<g id="g4858" transform="matrix(0.26458333,0,0,0.26458333,89.358789,128.57765)">
	<rect id="rect4856" x="619.623" y="891.572" fill-opacity="0.15" width="8653.815" height="9500.323"/>
</g>
<sodipodi:namedview  units="px" id="base" inkscape:pageshadow="2" inkscape:pageopacity="0.0" inkscape:window-maximized="0" fit-margin-left="0" fit-margin-top="0" showgrid="false" inkscape:cy="5.9688197" inkscape:cx="15.763023" inkscape:zoom="11.2" borderopacity="1.0" bordercolor="#666666" pagecolor="#ffffff" fit-margin-bottom="0" fit-margin-right="0" inkscape:window-y="0" inkscape:window-x="1280" inkscape:window-height="1434" inkscape:window-width="1274" inkscape:current-layer="layer1" inkscape:document-units="mm">
	</sodipodi:namedview>
<g>
	<path id="path7255" inkscape:connector-curvature="0" fill="#19130A" stroke="#636663" stroke-width="0.25" d="M11.843,23.331
		c-6.336,0-11.488-5.152-11.488-11.488S5.507,0.354,11.843,0.354s11.488,5.152,11.488,11.488S18.178,23.331,11.843,23.331"/>
	<rect x="10.978" y="0.388" fill="#D32B27" stroke="#636663" stroke-width="0.25" width="1.839" height="3.181"/>
</g>
<g>
	<path id="path7261" inkscape:connector-curvature="0" fill="#E6E6E6" stroke="#636663" stroke-width="0.25" d="M11.843,20.116
		c-4.563,0-8.273-3.711-8.273-8.273s3.711-8.273,8.273-8.273s8.273,3.711,8.273,8.273S16.405,20.116,11.843,20.116"/>
	<path id="path7265" inkscape:connector-curvature="0" d="M16.944,11.842c0,2.816-2.285,5.102-5.102,5.102s-5.102-2.285-5.102-5.102
		s2.285-5.102,5.102-5.102S16.944,9.026,16.944,11.842"/>
</g>
<rect x="44.731" y="-1.303" fill="#D32B27" stroke="#636663" stroke-width="0.25" width="1.839" height="3.181"/>
</svg>
