<?xml version="1.0" encoding="UTF-8" standalone="no"?>
<!-- Created with Inkscape (http://www.inkscape.org/) -->

<svg
   xmlns:dc="http://purl.org/dc/elements/1.1/"
   xmlns:cc="http://creativecommons.org/ns#"
   xmlns:rdf="http://www.w3.org/1999/02/22-rdf-syntax-ns#"
   xmlns:svg="http://www.w3.org/2000/svg"
   xmlns="http://www.w3.org/2000/svg"
   xmlns:sodipodi="http://sodipodi.sourceforge.net/DTD/sodipodi-0.dtd"
   xmlns:inkscape="http://www.inkscape.org/namespaces/inkscape"
   width="645"
   height="380"
   viewBox="0 0 170.65625 100.54166"
   version="1.1"
   id="svg12553"
   inkscape:version="0.92.3 (2405546, 2018-03-11)"
   sodipodi:docname="SEQEXP.svg">
  <defs
     id="defs12547" />
  <sodipodi:namedview
     id="base"
     pagecolor="#ffffff"
     bordercolor="#666666"
     borderopacity="1.0"
     inkscape:pageopacity="0.0"
     inkscape:pageshadow="2"
     inkscape:zoom="1.6597367"
     inkscape:cx="336.15109"
     inkscape:cy="296.77828"
     inkscape:document-units="mm"
     inkscape:current-layer="layer1"
     showgrid="true"
     fit-margin-top="0"
     fit-margin-left="0"
     fit-margin-right="0"
     fit-margin-bottom="0"
     units="px"
     inkscape:window-width="1920"
     inkscape:window-height="1017"
     inkscape:window-x="-8"
     inkscape:window-y="-8"
     inkscape:window-maximized="1">
    <inkscape:grid
       type="xygrid"
       id="grid12870"
       originx="-20.372917"
       originy="84.666661" />
  </sodipodi:namedview>
  <metadata
     id="metadata12550">
    <rdf:RDF>
      <cc:Work
         rdf:about="">
        <dc:format>image/svg+xml</dc:format>
        <dc:type
           rdf:resource="http://purl.org/dc/dcmitype/StillImage" />
        <dc:title></dc:title>
      </cc:Work>
    </rdf:RDF>
  </metadata>
  <g
     inkscape:label="Layer 1"
     inkscape:groupmode="layer"
     id="layer1"
     transform="translate(-26.543497,-161.30655)">
    <path
       inkscape:connector-curvature="0"
       id="path33453"
       d="M 26.616839,161.37987 H 197.9935 v 100.3961 H 26.616839 Z m 0,0"
       style="fill:#000000;fill-opacity:1;fill-rule:nonzero;stroke:#000000;stroke-width:0.38674122;stroke-opacity:1" />
    <path
       inkscape:connector-curvature="0"
       id="path35483"
       d="M 31.621188,171.18892 H 194.02475"
       style="fill:none;stroke:#606060;stroke-width:0.26618218;stroke-linecap:round;stroke-linejoin:round;stroke-miterlimit:10;stroke-opacity:1" />
    <path
       style="fill:#c8ab37;fill-opacity:0.67058824;stroke:none;stroke-width:0.27602378"
       d="m 34.621094,175.49395 c 0,0.0776 0.06038,0.13802 0.133694,0.13802 0.07763,0 0.138007,-0.0604 0.138007,-0.13802 v -1.3068 c 0,-0.0733 -0.06038,-0.1337 -0.138007,-0.1337 h -0.0042 c -0.03881,0 -0.07763,0.009 -0.129382,0.0259 l -0.237225,0.0733 c -0.05175,0.0173 -0.09057,0.0604 -0.09057,0.11645 0,0.0647 0.05606,0.11644 0.120756,0.11644 0.01296,0 0.0345,-0.004 0.04744,-0.009 l 0.159596,-0.0474 z m 0,0"
       id="path7275"
       inkscape:connector-curvature="0" />
    <path
       style="fill:#c8ab37;fill-opacity:0.67058824;stroke:none;stroke-width:0.27602378"
       d="m 44.255949,175.48964 c 0,0.0819 0.06038,0.12939 0.146632,0.12939 h 0.875533 c 0.06469,0 0.120756,-0.0518 0.120756,-0.12077 0,-0.0647 -0.05607,-0.11644 -0.120756,-0.11644 h -0.625369 l 0.314827,-0.2674 c 0.27604,-0.21996 0.405421,-0.35365 0.405421,-0.59518 v -0.009 c 0,-0.27603 -0.211349,-0.46148 -0.513238,-0.46148 -0.241512,0 -0.383858,0.0949 -0.508926,0.25015 -0.0217,0.0259 -0.0345,0.0561 -0.0345,0.0862 0,0.069 0.05607,0.12076 0.125068,0.12076 0.04313,0 0.07334,-0.0173 0.09491,-0.0388 0.09488,-0.11645 0.181134,-0.17252 0.306203,-0.17252 0.138006,0 0.250137,0.0863 0.250137,0.24152 0,0.13801 -0.07763,0.23721 -0.293264,0.41404 l -0.474425,0.40541 c -0.04313,0.0388 -0.069,0.0819 -0.069,0.1337 z m 0,0"
       id="path7271"
       inkscape:connector-curvature="0" />
    <path
       style="fill:#c8ab37;fill-opacity:0.67058824;stroke:none;stroke-width:0.27602378"
       d="m 55.013325,175.6449 c 0.323453,0 0.543428,-0.2027 0.543428,-0.49167 v -0.004 c 0,-0.28465 -0.224287,-0.40109 -0.457174,-0.43129 l 0.366607,-0.37521 c 0.04313,-0.0474 0.07763,-0.0863 0.07763,-0.15095 0,-0.0733 -0.06038,-0.11645 -0.138007,-0.11645 h -0.789278 c -0.06469,0 -0.120756,0.0517 -0.120756,0.11645 0,0.0647 0.05606,0.11644 0.120756,0.11644 h 0.560678 l -0.362267,0.38816 c -0.04313,0.0431 -0.05607,0.0733 -0.05607,0.11214 0,0.0604 0.05175,0.11644 0.116444,0.11644 h 0.05607 c 0.215635,0 0.353642,0.0863 0.353642,0.23721 v 0.004 c 0,0.14233 -0.112131,0.2329 -0.267388,0.2329 -0.142319,0 -0.25445,-0.0474 -0.349356,-0.14664 -0.0217,-0.0216 -0.05175,-0.0345 -0.09057,-0.0345 -0.07332,0 -0.129381,0.0604 -0.129381,0.12938 0,0.0388 0.0172,0.0776 0.04313,0.0992 0.125069,0.12076 0.293291,0.19839 0.521864,0.19839 z m 0,0"
       id="path7267"
       inkscape:connector-curvature="0" />
    <path
       style="fill:#c8ab37;fill-opacity:0.67058824;stroke:none;stroke-width:0.27602378"
       d="m 65.337817,175.50258 c 0,0.0733 0.05606,0.12939 0.129381,0.12939 0.07334,0 0.129408,-0.0561 0.129408,-0.12939 v -0.22859 h 0.120755 c 0.06469,0 0.112131,-0.0517 0.112131,-0.11213 0,-0.0604 -0.04744,-0.11213 -0.112131,-0.11213 h -0.120755 v -0.86689 c 0,-0.0733 -0.05607,-0.1337 -0.129408,-0.1337 -0.08194,0 -0.116443,0.0345 -0.168196,0.0906 l -0.724561,0.86257 c -0.03881,0.0431 -0.06038,0.0906 -0.06038,0.14233 0,0.0733 0.06038,0.12938 0.133694,0.12938 h 0.69006 z m -0.5089,-0.45285 0.5089,-0.61243 v 0.61243 z m 0,0"
       id="path7263"
       inkscape:connector-curvature="0" />
    <path
       style="fill:#c8ab37;fill-opacity:0.67058824;stroke:none;stroke-width:0.27602378"
       d="m 75.346422,175.6449 c 0.327766,0 0.564991,-0.20702 0.564991,-0.52186 v -0.004 c 0,-0.32778 -0.237225,-0.48735 -0.539115,-0.48735 -0.103505,0 -0.172508,0.0173 -0.245824,0.0431 l 0.02593,-0.36228 h 0.57793 c 0.069,0 0.120755,-0.0517 0.120755,-0.11644 0,-0.069 -0.05175,-0.12076 -0.120755,-0.12076 h -0.698687 c -0.06472,0 -0.120782,0.0474 -0.125095,0.12076 l -0.03019,0.55636 c -0.0042,0.0517 0.01297,0.0906 0.05175,0.11644 0.05175,0.0388 0.08625,0.0561 0.129408,0.0561 0.03881,0 0.11213,-0.0561 0.263075,-0.0561 0.189759,0 0.31914,0.0992 0.31914,0.25878 v 0.004 c 0,0.16389 -0.125068,0.2674 -0.297577,0.2674 -0.120756,0 -0.232886,-0.0431 -0.336417,-0.12939 -0.0217,-0.0216 -0.04744,-0.0302 -0.08194,-0.0302 -0.069,0 -0.129381,0.0604 -0.129381,0.1337 0,0.0431 0.0217,0.0776 0.05606,0.10351 0.125069,0.0992 0.284665,0.1682 0.495988,0.1682 z m 0,0"
       id="path7259"
       inkscape:connector-curvature="0" />
    <path
       style="fill:#c8ab37;fill-opacity:0.67058824;stroke:none;stroke-width:0.27602378"
       d="m 85.546692,175.6449 c 0.323479,0 0.573616,-0.21996 0.573616,-0.52617 v -0.004 c 0,-0.30622 -0.241511,-0.48304 -0.539115,-0.48304 -0.185446,0 -0.288951,0.0733 -0.370893,0.15095 0.01296,-0.28034 0.138007,-0.48736 0.370893,-0.48736 0.103505,0 0.181134,0.0302 0.263076,0.0863 0.0217,0.009 0.04315,0.0172 0.06903,0.0172 0.069,0 0.129382,-0.0517 0.129382,-0.12507 0,-0.0561 -0.02593,-0.0906 -0.069,-0.11645 -0.09919,-0.069 -0.224287,-0.11214 -0.383857,-0.11214 -0.439923,0 -0.664184,0.37091 -0.664184,0.84533 v 0.004 c 0,0.31053 0.07332,0.4701 0.189759,0.58655 0.103532,0.10351 0.241539,0.16389 0.431298,0.16389 z m -0.0087,-0.23721 c -0.194071,0 -0.31914,-0.11644 -0.31914,-0.27602 v -0.004 c 0,-0.14664 0.120756,-0.27171 0.310515,-0.27171 0.194072,0 0.31914,0.11644 0.31914,0.27171 v 0.004 c 0,0.15958 -0.116443,0.27602 -0.310515,0.27602 z m 0,0"
       id="path7255"
       inkscape:connector-curvature="0" />
    <path
       style="fill:#c8ab37;fill-opacity:0.67058824;stroke:none;stroke-width:0.27602378"
       d="m 95.326406,175.50689 c 0,0.0776 0.06903,0.12508 0.138033,0.12508 0.05607,0 0.09919,-0.0302 0.133694,-0.0906 l 0.638307,-1.21624 c 0.0217,-0.0431 0.03881,-0.0906 0.03881,-0.12938 0,-0.0776 -0.04744,-0.12076 -0.125069,-0.12076 h -0.866907 c -0.06469,0 -0.120756,0.0517 -0.120756,0.11645 0,0.069 0.05606,0.12076 0.120756,0.12076 h 0.668496 l -0.599493,1.11272 c -0.01296,0.0259 -0.02593,0.0604 -0.02593,0.0819 z m 0,0"
       id="path7251"
       inkscape:connector-curvature="0" />
    <path
       style="fill:#c8ab37;fill-opacity:0.67058824;stroke:none;stroke-width:0.27602378"
       d="m 105.8677,175.64059 c 0.3407,0 0.59086,-0.17252 0.59086,-0.44854 v -0.004 c 0,-0.18114 -0.10781,-0.29328 -0.28035,-0.37091 0.13372,-0.069 0.2286,-0.17251 0.2286,-0.34503 v -0.004 c 0,-0.23721 -0.2286,-0.41835 -0.53911,-0.41835 -0.30621,0 -0.53481,0.18114 -0.53481,0.41835 v 0.004 c 0,0.17252 0.0949,0.27603 0.22429,0.34503 -0.17253,0.0733 -0.27604,0.18977 -0.27604,0.37522 v 0.004 c 0,0.2674 0.25017,0.44423 0.58656,0.44423 z m 0,-0.91433 c -0.15957,0 -0.27602,-0.0949 -0.27602,-0.22858 v -0.004 c 0,-0.11645 0.11213,-0.21565 0.27602,-0.21565 0.16819,0 0.27601,0.0992 0.27601,0.21565 v 0.004 c 0,0.1337 -0.11644,0.22858 -0.27601,0.22858 z m 0,0.68575 c -0.2027,0 -0.31914,-0.10351 -0.31914,-0.22859 v -0.004 c 0,-0.14232 0.138,-0.2372 0.31914,-0.2372 0.18544,0 0.32776,0.0949 0.32776,0.2372 v 0.004 c 0,0.12508 -0.12507,0.22859 -0.32776,0.22859 z m 0,0"
       id="path7247"
       inkscape:connector-curvature="0" />
    <g
       id="g918"
       transform="translate(36.084575)"
       style="fill:#c8ab37;fill-opacity:1">
      <path
         inkscape:connector-curvature="0"
         id="path7611"
         d="m 70.818108,168.8251 c 0.500274,0 0.84963,-0.25877 0.84963,-0.72025 v -0.009 c 0,-0.40109 -0.263102,-0.5693 -0.733187,-0.69437 -0.401108,-0.10351 -0.500301,-0.15095 -0.500301,-0.3019 v -0.009 c 0,-0.11213 0.09919,-0.20271 0.297577,-0.20271 0.159597,0 0.319167,0.0561 0.487363,0.15527 0.03881,0.0259 0.07763,0.0388 0.129381,0.0388 0.129408,0 0.237225,-0.10351 0.237225,-0.23721 0,-0.0992 -0.05606,-0.1682 -0.11213,-0.2027 -0.211349,-0.12939 -0.452861,-0.20271 -0.737526,-0.20271 -0.474398,0 -0.810816,0.27602 -0.810816,0.69869 v 0.004 c 0,0.46147 0.301916,0.59086 0.767689,0.71162 0.38817,0.0992 0.470111,0.16389 0.470111,0.29327 v 0.009 c 0,0.1337 -0.129381,0.21565 -0.336391,0.21565 -0.224287,0 -0.418359,-0.0776 -0.590867,-0.20702 -0.0345,-0.0259 -0.08194,-0.0474 -0.146632,-0.0474 -0.133721,0 -0.241538,0.10351 -0.241538,0.23721 0,0.0776 0.04313,0.15095 0.09919,0.18976 0.258789,0.18546 0.564991,0.28034 0.87122,0.28034 z m 0,0"
         style="fill:#c8ab37;fill-opacity:1;stroke:none;stroke-width:0.27602378" />
      <path
         inkscape:connector-curvature="0"
         id="path7607"
         d="m 72.403438,168.7906 h 1.298178 c 0.129382,0 0.228574,-0.0992 0.228574,-0.22427 0,-0.12507 -0.09919,-0.22858 -0.228574,-0.22858 h -1.048041 v -0.48736 h 0.884132 c 0.125095,0 0.2286,-0.0992 0.2286,-0.22427 0,-0.12938 -0.103505,-0.22858 -0.2286,-0.22858 h -0.884132 v -0.4701 h 1.035103 c 0.125069,0 0.228574,-0.0992 0.228574,-0.22858 0,-0.12508 -0.103505,-0.22859 -0.228574,-0.22859 h -1.28524 c -0.142319,0 -0.254476,0.11645 -0.254476,0.25878 v 1.80709 c 0,0.14232 0.112157,0.25446 0.254476,0.25446 z m 0,0"
         style="fill:#c8ab37;fill-opacity:1;stroke:none;stroke-width:0.27602378" />
      <path
         inkscape:connector-curvature="0"
         id="path7603"
         d="m 75.470673,168.82941 c 0.258763,0 0.491676,-0.0733 0.685748,-0.19839 l 0.129381,0.11214 c 0.03881,0.0388 0.09919,0.069 0.168195,0.069 0.129408,0 0.237226,-0.10782 0.237226,-0.24152 0,-0.082 -0.03881,-0.14233 -0.09057,-0.18977 l -0.103532,-0.0819 c 0.129408,-0.19408 0.207037,-0.42266 0.207037,-0.6685 v -0.004 c 0,-0.65986 -0.513239,-1.19466 -1.229175,-1.19466 -0.715936,0 -1.233487,0.53911 -1.233487,1.19898 v 0.009 c 0,0.65987 0.513238,1.19035 1.229174,1.19035 z m 0.069,-0.7375 0.241511,0.20702 c -0.09057,0.0431 -0.194071,0.0604 -0.306202,0.0604 -0.409734,0 -0.702998,-0.33209 -0.702998,-0.72887 v -0.004 c 0,-0.39679 0.284639,-0.72457 0.698685,-0.72457 0.409734,0 0.698686,0.3321 0.698686,0.72888 v 0.009 c 0,0.11645 -0.0217,0.22427 -0.06038,0.31484 l -0.25445,-0.22858 c -0.05609,-0.0431 -0.09922,-0.069 -0.168222,-0.069 -0.133694,0 -0.241512,0.11213 -0.241512,0.24152 0,0.0863 0.03881,0.14664 0.09488,0.19408 z m 0,0"
         style="fill:#c8ab37;fill-opacity:1;stroke:none;stroke-width:0.27602378" />
      <path
         inkscape:connector-curvature="0"
         id="path7599"
         d="m 77.389882,168.00566 h 0.57359 c 0.13372,0 0.245851,-0.10783 0.245851,-0.24152 0,-0.1337 -0.112131,-0.24153 -0.245851,-0.24153 h -0.57359 c -0.133721,0 -0.241539,0.10783 -0.241539,0.24153 0,0.13369 0.107818,0.24152 0.241539,0.24152 z m 0,0"
         style="fill:#c8ab37;fill-opacity:1;stroke:none;stroke-width:0.27602378" />
      <path
         style="fill:#c8ab37;fill-opacity:1;stroke:none;stroke-width:0.42940146"
         d="m 78.856413,168.57446 c 0,0.11469 0.09887,0.20399 0.218912,0.20399 0.127112,0 0.225974,-0.0893 0.225974,-0.20399 V 166.643 c 0,-0.10834 -0.09887,-0.19761 -0.225974,-0.19761 h -0.0069 c -0.06355,0 -0.127112,0.0133 -0.211852,0.0383 l -0.388435,0.10834 c -0.08474,0.0256 -0.1483,0.0893 -0.1483,0.17212 0,0.0956 0.09179,0.17209 0.197728,0.17209 0.02122,0 0.05649,-0.006 0.07768,-0.0133 l 0.261324,-0.0701 z m 0,0"
         id="path908"
         inkscape:connector-curvature="0" />
      <path
         style="fill:#c8ab37;fill-opacity:1;stroke:none;stroke-width:0.42940146"
         d="m 80.787152,168.80832 c 0.529668,0 0.939245,-0.3251 0.939245,-0.77768 v -0.006 c 0,-0.4526 -0.395452,-0.71393 -0.882753,-0.71393 -0.303652,0 -0.473132,0.10833 -0.607305,0.2231 0.02122,-0.41434 0.225975,-0.72032 0.607305,-0.72032 0.16948,0 0.296591,0.0446 0.430764,0.12755 0.03553,0.0133 0.07066,0.0254 0.113031,0.0254 0.11298,0 0.21185,-0.0764 0.21185,-0.18485 0,-0.0829 -0.04245,-0.1339 -0.11298,-0.17212 -0.162416,-0.10198 -0.367251,-0.16574 -0.628533,-0.16574 -0.720335,0 -1.087542,0.54821 -1.087542,1.24941 v 0.006 c 0,0.45897 0.120054,0.69482 0.310713,0.86693 0.169525,0.15299 0.395499,0.24223 0.706213,0.24223 z m -0.01425,-0.35059 c -0.317774,0 -0.522564,-0.1721 -0.522564,-0.40796 v -0.006 c 0,-0.21673 0.197728,-0.40159 0.508442,-0.40159 0.317776,0 0.522564,0.17209 0.522564,0.40159 v 0.006 c 0,0.23586 -0.190666,0.40796 -0.508442,0.40796 z m 0,0"
         id="path910"
         inkscape:connector-curvature="0" />
    </g>
    <g
       style="fill:#c8ab37;fill-opacity:1"
       transform="translate(-63.398809)"
       id="g5311">
      <path
         style="fill:#c8ab37;fill-opacity:1;stroke:none;stroke-width:0.27602378"
         d="m 70.818108,168.8251 c 0.500274,0 0.84963,-0.25877 0.84963,-0.72025 v -0.009 c 0,-0.40109 -0.263102,-0.5693 -0.733187,-0.69437 -0.401108,-0.10351 -0.500301,-0.15095 -0.500301,-0.3019 v -0.009 c 0,-0.11213 0.09919,-0.20271 0.297577,-0.20271 0.159597,0 0.319167,0.0561 0.487363,0.15527 0.03881,0.0259 0.07763,0.0388 0.129381,0.0388 0.129408,0 0.237225,-0.10351 0.237225,-0.23721 0,-0.0992 -0.05606,-0.1682 -0.11213,-0.2027 -0.211349,-0.12939 -0.452861,-0.20271 -0.737526,-0.20271 -0.474398,0 -0.810816,0.27602 -0.810816,0.69869 v 0.004 c 0,0.46147 0.301916,0.59086 0.767689,0.71162 0.38817,0.0992 0.470111,0.16389 0.470111,0.29327 v 0.009 c 0,0.1337 -0.129381,0.21565 -0.336391,0.21565 -0.224287,0 -0.418359,-0.0776 -0.590867,-0.20702 -0.0345,-0.0259 -0.08194,-0.0474 -0.146632,-0.0474 -0.133721,0 -0.241538,0.10351 -0.241538,0.23721 0,0.0776 0.04313,0.15095 0.09919,0.18976 0.258789,0.18546 0.564991,0.28034 0.87122,0.28034 z m 0,0"
         id="path5299"
         inkscape:connector-curvature="0" />
      <path
         style="fill:#c8ab37;fill-opacity:1;stroke:none;stroke-width:0.27602378"
         d="m 72.403438,168.7906 h 1.298178 c 0.129382,0 0.228574,-0.0992 0.228574,-0.22427 0,-0.12507 -0.09919,-0.22858 -0.228574,-0.22858 h -1.048041 v -0.48736 h 0.884132 c 0.125095,0 0.2286,-0.0992 0.2286,-0.22427 0,-0.12938 -0.103505,-0.22858 -0.2286,-0.22858 h -0.884132 v -0.4701 h 1.035103 c 0.125069,0 0.228574,-0.0992 0.228574,-0.22858 0,-0.12508 -0.103505,-0.22859 -0.228574,-0.22859 h -1.28524 c -0.142319,0 -0.254476,0.11645 -0.254476,0.25878 v 1.80709 c 0,0.14232 0.112157,0.25446 0.254476,0.25446 z m 0,0"
         id="path5301"
         inkscape:connector-curvature="0" />
      <path
         style="fill:#c8ab37;fill-opacity:1;stroke:none;stroke-width:0.27602378"
         d="m 75.470673,168.82941 c 0.258763,0 0.491676,-0.0733 0.685748,-0.19839 l 0.129381,0.11214 c 0.03881,0.0388 0.09919,0.069 0.168195,0.069 0.129408,0 0.237226,-0.10782 0.237226,-0.24152 0,-0.082 -0.03881,-0.14233 -0.09057,-0.18977 l -0.103532,-0.0819 c 0.129408,-0.19408 0.207037,-0.42266 0.207037,-0.6685 v -0.004 c 0,-0.65986 -0.513239,-1.19466 -1.229175,-1.19466 -0.715936,0 -1.233487,0.53911 -1.233487,1.19898 v 0.009 c 0,0.65987 0.513238,1.19035 1.229174,1.19035 z m 0.069,-0.7375 0.241511,0.20702 c -0.09057,0.0431 -0.194071,0.0604 -0.306202,0.0604 -0.409734,0 -0.702998,-0.33209 -0.702998,-0.72887 v -0.004 c 0,-0.39679 0.284639,-0.72457 0.698685,-0.72457 0.409734,0 0.698686,0.3321 0.698686,0.72888 v 0.009 c 0,0.11645 -0.0217,0.22427 -0.06038,0.31484 l -0.25445,-0.22858 c -0.05609,-0.0431 -0.09922,-0.069 -0.168222,-0.069 -0.133694,0 -0.241512,0.11213 -0.241512,0.24152 0,0.0863 0.03881,0.14664 0.09488,0.19408 z m 0,0"
         id="path5303"
         inkscape:connector-curvature="0" />
      <path
         style="fill:#c8ab37;fill-opacity:1;stroke:none;stroke-width:0.27602378"
         d="m 77.389882,168.00566 h 0.57359 c 0.13372,0 0.245851,-0.10783 0.245851,-0.24152 0,-0.1337 -0.112131,-0.24153 -0.245851,-0.24153 h -0.57359 c -0.133721,0 -0.241539,0.10783 -0.241539,0.24153 0,0.13369 0.107818,0.24152 0.241539,0.24152 z m 0,0"
         id="path5305"
         inkscape:connector-curvature="0" />
      <path
         inkscape:connector-curvature="0"
         id="path5307"
         d="m 78.856413,168.57446 c 0,0.11469 0.09887,0.20399 0.218912,0.20399 0.127112,0 0.225974,-0.0893 0.225974,-0.20399 V 166.643 c 0,-0.10834 -0.09887,-0.19761 -0.225974,-0.19761 h -0.0069 c -0.06355,0 -0.127112,0.0133 -0.211852,0.0383 l -0.388435,0.10834 c -0.08474,0.0256 -0.1483,0.0893 -0.1483,0.17212 0,0.0956 0.09179,0.17209 0.197728,0.17209 0.02122,0 0.05649,-0.006 0.07768,-0.0133 l 0.261324,-0.0701 z m 0,0"
         style="fill:#c8ab37;fill-opacity:1;stroke:none;stroke-width:0.42940146" />
      <path
         inkscape:connector-curvature="0"
         id="path5309"
         d="m 80.787152,168.80832 c 0.529668,0 0.939245,-0.3251 0.939245,-0.77768 v -0.006 c 0,-0.4526 -0.395452,-0.71393 -0.882753,-0.71393 -0.303652,0 -0.473132,0.10833 -0.607305,0.2231 0.02122,-0.41434 0.225975,-0.72032 0.607305,-0.72032 0.16948,0 0.296591,0.0446 0.430764,0.12755 0.03553,0.0133 0.07066,0.0254 0.113031,0.0254 0.11298,0 0.21185,-0.0764 0.21185,-0.18485 0,-0.0829 -0.04245,-0.1339 -0.11298,-0.17212 -0.162416,-0.10198 -0.367251,-0.16574 -0.628533,-0.16574 -0.720335,0 -1.087542,0.54821 -1.087542,1.24941 v 0.006 c 0,0.45897 0.120054,0.69482 0.310713,0.86693 0.169525,0.15299 0.395499,0.24223 0.706213,0.24223 z m -0.01425,-0.35059 c -0.317774,0 -0.522564,-0.1721 -0.522564,-0.40796 v -0.006 c 0,-0.21673 0.197728,-0.40159 0.508442,-0.40159 0.317776,0 0.522564,0.17209 0.522564,0.40159 v 0.006 c 0,0.23586 -0.190666,0.40796 -0.508442,0.40796 z m 0,0"
         style="fill:#c8ab37;fill-opacity:1;stroke:none;stroke-width:0.42940146" />
    </g>
  </g>
</svg>
