<?xml version="1.0" encoding="UTF-8" standalone="no"?>
<!-- Created with Inkscape (http://www.inkscape.org/) -->

<svg
   xmlns:dc="http://purl.org/dc/elements/1.1/"
   xmlns:cc="http://creativecommons.org/ns#"
   xmlns:rdf="http://www.w3.org/1999/02/22-rdf-syntax-ns#"
   xmlns:svg="http://www.w3.org/2000/svg"
   xmlns="http://www.w3.org/2000/svg"
   xmlns:sodipodi="http://sodipodi.sourceforge.net/DTD/sodipodi-0.dtd"
   xmlns:inkscape="http://www.inkscape.org/namespaces/inkscape"
   width="36"
   height="36"
   viewBox="0 0 9.525 9.5249998"
   version="1.1"
   id="svg15246"
   sodipodi:docname="sts-PJ301O.svg"
   inkscape:version="0.92.3 (2405546, 2018-03-11)">
  <defs
     id="defs15240">
    <clipPath
       id="clip89">
      <rect
         y="0"
         x="0"
         width="18"
         height="19"
         id="rect4864" />
    </clipPath>
    <clipPath
       id="clip90">
      <path
         inkscape:connector-curvature="0"
         d="m 0.898438,0.128906 h 16.25 v 17.882813 h -16.25 z m 0,0"
         id="path4861" />
    </clipPath>
    <mask
       id="mask44">
      <g
         style="filter:url(#alpha)"
         id="g4858"
         transform="matrix(0.26458333,0,0,0.26458333,89.358789,128.57765)">
        <rect
           x="0"
           y="0"
           width="3052.8701"
           height="3351.5"
           style="fill:#000000;fill-opacity:0.14999402;stroke:none"
           id="rect4856" />
      </g>
    </mask>
    <filter
       id="alpha"
       filterUnits="objectBoundingBox"
       x="0"
       y="0"
       width="1"
       height="1">
      <feColorMatrix
         type="matrix"
         in="SourceGraphic"
         values="0 0 0 0 1 0 0 0 0 1 0 0 0 0 1 0 0 0 1 0"
         id="feColorMatrix4149" />
    </filter>
    <clipPath
       id="clipPath17821">
      <rect
         y="0"
         x="0"
         width="18"
         height="19"
         id="rect17819" />
    </clipPath>
    <clipPath
       id="clipPath17825">
      <path
         inkscape:connector-curvature="0"
         d="m 0.898438,0.128906 h 16.25 v 17.882813 h -16.25 z m 0,0"
         id="path17823" />
    </clipPath>
    <clipPath
       id="clip87">
      <rect
         y="0"
         x="0"
         width="24"
         height="26"
         id="rect4848" />
    </clipPath>
    <clipPath
       id="clip88">
      <path
         inkscape:connector-curvature="0"
         d="m 0.683594,0.921875 h 22.679687 v 24.9375 H 0.683594 Z m 0,0"
         id="path4845" />
    </clipPath>
    <mask
       id="mask43">
      <g
         style="filter:url(#alpha)"
         id="g4842"
         transform="matrix(0.26458333,0,0,0.26458333,89.358789,128.57765)">
        <rect
           x="0"
           y="0"
           width="3052.8701"
           height="3351.5"
           style="fill:#000000;fill-opacity:0.14999402;stroke:none"
           id="rect4840" />
      </g>
    </mask>
    <filter
       id="filter17836"
       filterUnits="objectBoundingBox"
       x="0"
       y="0"
       width="1"
       height="1">
      <feColorMatrix
         type="matrix"
         in="SourceGraphic"
         values="0 0 0 0 1 0 0 0 0 1 0 0 0 0 1 0 0 0 1 0"
         id="feColorMatrix17834" />
    </filter>
    <clipPath
       id="clipPath17840">
      <rect
         y="0"
         x="0"
         width="24"
         height="26"
         id="rect17838" />
    </clipPath>
    <clipPath
       id="clipPath17844">
      <path
         inkscape:connector-curvature="0"
         d="m 0.683594,0.921875 h 22.679687 v 24.9375 H 0.683594 Z m 0,0"
         id="path17842" />
    </clipPath>
    <clipPath
       id="clipPath6367"
       clipPathUnits="userSpaceOnUse">
      <path
         inkscape:connector-curvature="0"
         id="path6365"
         d="M 0,3193 H 2089 V 0 H 0 Z" />
    </clipPath>
  </defs>
  <sodipodi:namedview
     id="base"
     pagecolor="#ffffff"
     bordercolor="#666666"
     borderopacity="1.0"
     inkscape:pageopacity="0.0"
     inkscape:pageshadow="2"
     inkscape:zoom="11.2"
     inkscape:cx="56.156023"
     inkscape:cy="11.168293"
     inkscape:document-units="px"
     inkscape:current-layer="layer1"
     showgrid="false"
     inkscape:window-width="1920"
     inkscape:window-height="1017"
     inkscape:window-x="-8"
     inkscape:window-y="-8"
     inkscape:window-maximized="1"
     units="px"
     fit-margin-top="0"
     fit-margin-left="0"
     fit-margin-right="0"
     fit-margin-bottom="0" />
  <metadata
     id="metadata15243">
    <rdf:RDF>
      <cc:Work
         rdf:about="">
        <dc:format>image/svg+xml</dc:format>
        <dc:type
           rdf:resource="http://purl.org/dc/dcmitype/StillImage" />
        <dc:title></dc:title>
      </cc:Work>
    </rdf:RDF>
  </metadata>
  <g
     inkscape:label="Layer 1"
     inkscape:groupmode="layer"
     id="layer1"
     transform="translate(-88.611154,-118.02922)">
    <path
       inkscape:connector-curvature="0"
       id="path7255"
       d="m 82.087513,127.42922 c -2.235179,0 -4.05281,-1.81762 -4.05281,-4.05282 0,-2.23516 1.817631,-4.05281 4.05281,-4.05281 2.235176,0 4.05281,1.81765 4.05281,4.05281 0,2.2352 -1.817634,4.05282 -4.05281,4.05282"
       style="fill:#e6e6e6;fill-opacity:1;fill-rule:nonzero;stroke:#636663;stroke-width:0.25;stroke-miterlimit:4;stroke-dasharray:none;stroke-opacity:1" />
    <g
       style="fill:#e6b9e6;fill-opacity:1;stroke-width:1.33335185"
       id="g6443"
       transform="matrix(0.26457966,0,0,-0.26457966,107.48965,123.44733)" />
    <g
       style="stroke-width:1.33335185"
       id="g6451"
       transform="matrix(0.26457966,0,0,-0.26457966,102.88562,118.703)" />
    <path
       inkscape:connector-curvature="0"
       id="path7265"
       d="m 83.88723,123.3764 c 0,0.99357 -0.806153,1.79974 -1.799717,1.79974 -0.993567,0 -1.79972,-0.80617 -1.79972,-1.79974 0,-0.99356 0.806153,-1.79969 1.79972,-1.79969 0.993564,0 1.799717,0.80613 1.799717,1.79969"
       style="fill:#000000;fill-opacity:1;fill-rule:nonzero;stroke:none;stroke-width:0.35277775" />
    <g
       id="g3268"
       transform="matrix(1,0,0,0.9999454,-18.165306,2.8474493)">
      <path
         inkscape:connector-curvature="0"
         id="path3229"
         d="m 111.53896,115.18832 c -2.63019,0 -4.7625,2.13231 -4.7625,4.7625 0,2.63019 2.13231,4.7625 4.7625,4.7625 2.62992,0 4.7625,-2.13231 4.7625,-4.7625 0,-2.63019 -2.13258,-4.7625 -4.7625,-4.7625 z m 0,1.71979 a 3.0427083,3.0427083 0 0 1 3.04271,3.04271 3.0427083,3.0427083 0 0 1 -3.04271,3.04271 3.0427083,3.0427083 0 0 1 -3.04271,-3.04271 3.0427083,3.0427083 0 0 1 3.04271,-3.04271 z"
         style="opacity:1;fill:#a2a2a2;fill-opacity:1;fill-rule:evenodd;stroke:#636663;stroke-width:0;stroke-miterlimit:4;stroke-dasharray:none;stroke-opacity:1" />
      <path
         inkscape:transform-center-y="1.4646577"
         inkscape:transform-center-x="-10.063616"
         inkscape:connector-curvature="0"
         id="path6449"
         d="m 111.53895,115.18806 c -0.17039,0 -0.33823,0.0105 -0.50333,0.0279 -0.33839,0.20928 -0.67104,0.56022 -1.14463,0.75654 -0.47201,0.19579 -0.95471,0.18315 -1.34101,0.27337 -0.26379,0.21325 -0.50351,0.45245 -0.71623,0.71624 -0.0905,0.38576 -0.0778,0.86899 -0.27389,1.341 -0.19579,0.4736 -0.54727,0.80623 -0.75602,1.14463 -0.0175,0.16536 -0.0274,0.33347 -0.0274,0.50333 0,0.17013 0.0102,0.33796 0.0274,0.50385 0.20875,0.33787 0.56023,0.67103 0.75602,1.14463 0.19605,0.47201 0.1834,0.95448 0.27389,1.33997 0.21272,0.26405 0.45244,0.50376 0.71623,0.71675 0.3863,0.0905 0.869,0.0778 1.34101,0.27337 0.47359,0.19659 0.80624,0.54752 1.14463,0.75654 0.1651,0.0172 0.33294,0.0274 0.50333,0.0274 0.16986,0 0.33797,-0.0103 0.50333,-0.0274 0.33787,-0.20902 0.67103,-0.55995 1.14463,-0.75654 0.47253,-0.19552 0.95446,-0.18289 1.34049,-0.27337 0.26405,-0.21299 0.50376,-0.4527 0.71675,-0.71675 0.0905,-0.38549 0.0776,-0.86796 0.27337,-1.33997 0.19579,-0.4736 0.54804,-0.80676 0.75706,-1.14463 0.0172,-0.16589 0.0269,-0.33372 0.0269,-0.50385 0,-0.16986 -0.01,-0.33797 -0.0269,-0.50333 -0.20902,-0.3384 -0.56127,-0.67103 -0.75706,-1.14463 -0.19579,-0.47201 -0.18288,-0.95524 -0.27337,-1.341 -0.21299,-0.26379 -0.4527,-0.50299 -0.71675,-0.71624 -0.38603,-0.0902 -0.86796,-0.0776 -1.34049,-0.27337 -0.4736,-0.19632 -0.80676,-0.54726 -1.14463,-0.75654 -0.16536,-0.0175 -0.33347,-0.0279 -0.50333,-0.0279 z m 0,1.7203 a 3.0427083,3.0427083 0 0 1 3.04271,3.04271 3.0427083,3.0427083 0 0 1 -3.04271,3.04271 3.0427083,3.0427083 0 0 1 -3.04271,-3.04271 3.0427083,3.0427083 0 0 1 3.04271,-3.04271 z"
         style="fill:#000000;fill-opacity:1;fill-rule:evenodd;stroke:none;stroke-width:0.35277778" />
      <path
         inkscape:connector-curvature="0"
         id="path3227"
         d="m 111.69749,115.20662 c -0.0516,-0.0119 -0.10398,-0.0183 -0.15822,-0.0183 -0.0545,0 -0.10689,0.006 -0.15822,0.0183 v 1.70929 h 0.31644 z"
         style="opacity:1;fill:#feffff;fill-opacity:1;fill-rule:evenodd;stroke:#636663;stroke-width:0;stroke-miterlimit:4;stroke-dasharray:none;stroke-opacity:1" />
    </g>
  </g>
</svg>
