<?xml version="1.0" encoding="UTF-8" standalone="no"?>
<!-- Created with Inkscape (http://www.inkscape.org/) -->

<svg
   xmlns:dc="http://purl.org/dc/elements/1.1/"
   xmlns:cc="http://creativecommons.org/ns#"
   xmlns:rdf="http://www.w3.org/1999/02/22-rdf-syntax-ns#"
   xmlns:svg="http://www.w3.org/2000/svg"
   xmlns="http://www.w3.org/2000/svg"
   xmlns:sodipodi="http://sodipodi.sourceforge.net/DTD/sodipodi-0.dtd"
   xmlns:inkscape="http://www.inkscape.org/namespaces/inkscape"
   width="90"
   height="380"
   viewBox="0 0 23.812501 100.54167"
   version="1.1"
   id="svg8"
   inkscape:version="0.92.3 (2405546, 2018-03-11)"
   sodipodi:docname="switch2to1x11.svg">
  <defs
     id="defs2">
    <inkscape:perspective
       id="perspective4197"
       inkscape:persp3d-origin="240 : 126.66667 : 1"
       inkscape:vp_z="480.00001 : 190 : 1"
       inkscape:vp_y="0 : 1000 : 0"
       inkscape:vp_x="0 : 190 : 1"
       sodipodi:type="inkscape:persp3d" />
    <clipPath
       clipPathUnits="userSpaceOnUse"
       id="clipPath7295">
      <rect
         style="opacity:1;fill:#ffffff;fill-opacity:1;stroke:none;stroke-width:0.30000001;stroke-miterlimit:10;stroke-dasharray:none;stroke-opacity:1"
         id="rect7297"
         width="23.812504"
         height="10.672495"
         x="-7.4505806e-07"
         y="288.69913"
         rx="0.33157319"
         ry="0.23581709" />
    </clipPath>
    <clipPath
       clipPathUnits="userSpaceOnUse"
       id="clipPath7299">
      <rect
         style="opacity:1;fill:#ffffff;fill-opacity:1;stroke:none;stroke-width:0.30000001;stroke-miterlimit:10;stroke-dasharray:none;stroke-opacity:1"
         id="rect7301"
         width="23.812504"
         height="10.672495"
         x="-7.4505806e-07"
         y="288.69913"
         rx="0.33157319"
         ry="0.23581709" />
    </clipPath>
    <clipPath
       clipPathUnits="userSpaceOnUse"
       id="clipPath7303">
      <rect
         style="opacity:1;fill:#ffffff;fill-opacity:1;stroke:none;stroke-width:0.30000001;stroke-miterlimit:10;stroke-dasharray:none;stroke-opacity:1"
         id="rect7305"
         width="23.812504"
         height="10.672495"
         x="-7.4505806e-07"
         y="288.69913"
         rx="0.33157319"
         ry="0.23581709" />
    </clipPath>
    <clipPath
       clipPathUnits="userSpaceOnUse"
       id="clipPath7307">
      <rect
         style="opacity:1;fill:#ffffff;fill-opacity:1;stroke:none;stroke-width:0.30000001;stroke-miterlimit:10;stroke-dasharray:none;stroke-opacity:1"
         id="rect7309"
         width="99.864174"
         height="44.757996"
         x="224.51292"
         y="-22.671703"
         rx="1.3905418"
         ry="0.98896277" />
    </clipPath>
    <clipPath
       clipPathUnits="userSpaceOnUse"
       id="clipPath7311">
      <rect
         style="opacity:1;fill:#ffffff;fill-opacity:1;stroke:none;stroke-width:0.30000001;stroke-miterlimit:10;stroke-dasharray:none;stroke-opacity:1"
         id="rect7313"
         width="23.812504"
         height="10.672495"
         x="-7.4505806e-07"
         y="288.69913"
         rx="0.33157319"
         ry="0.23581709" />
    </clipPath>
    <clipPath
       clipPathUnits="userSpaceOnUse"
       id="clipPath7315">
      <rect
         style="opacity:1;fill:#ffffff;fill-opacity:1;stroke:none;stroke-width:0.30000001;stroke-miterlimit:10;stroke-dasharray:none;stroke-opacity:1"
         id="rect7317"
         width="23.812504"
         height="10.672495"
         x="-7.4505806e-07"
         y="288.69913"
         rx="0.33157319"
         ry="0.23581709" />
    </clipPath>
  </defs>
  <sodipodi:namedview
     id="base"
     pagecolor="#ffffff"
     bordercolor="#666666"
     borderopacity="1.0"
     inkscape:pageopacity="0.0"
     inkscape:pageshadow="2"
     inkscape:zoom="2.2368421"
     inkscape:cx="45"
     inkscape:cy="190"
     inkscape:document-units="mm"
     inkscape:current-layer="layer1"
     showgrid="false"
     units="px"
     inkscape:snap-bbox="true"
     inkscape:snap-page="true"
     inkscape:bbox-nodes="true"
     inkscape:snap-bbox-edge-midpoints="true"
     inkscape:window-width="1920"
     inkscape:window-height="1017"
     inkscape:window-x="-8"
     inkscape:window-y="-8"
     inkscape:window-maximized="1"
     inkscape:showpageshadow="false"
     borderlayer="true"
     inkscape:snap-global="true" />
  <metadata
     id="metadata5">
    <rdf:RDF>
      <cc:Work
         rdf:about="">
        <dc:format>image/svg+xml</dc:format>
        <dc:type
           rdf:resource="http://purl.org/dc/dcmitype/StillImage" />
        <dc:title />
      </cc:Work>
    </rdf:RDF>
  </metadata>
  <g
     inkscape:label="Layer 1"
     inkscape:groupmode="layer"
     id="layer1"
     transform="translate(0,-196.45832)"
     style="display:inline">
    <path
       style="opacity:1;fill:#000000;fill-opacity:1;fill-rule:evenodd;stroke:none;stroke-width:0.48607069;stroke-linecap:butt;stroke-linejoin:round;stroke-miterlimit:4;stroke-dasharray:none;stroke-dashoffset:0;stroke-opacity:1;paint-order:normal"
       d="M 0,196.45831 H 23.812502 V 296.99999 H 0 Z"
       id="rect817"
       inkscape:connector-curvature="0" />
    <flowRoot
       transform="matrix(0.26458334,0,0,0.26458334,-58.459936,293.81811)"
       style="font-style:normal;font-variant:normal;font-weight:normal;font-stretch:normal;line-height:0.01%;font-family:'Trajan Pro 3';-inkscape-font-specification:'Trajan Pro 3, ';letter-spacing:0px;word-spacing:0px;fill:#000000;fill-opacity:1;stroke:none;stroke-width:1px;stroke-linecap:butt;stroke-linejoin:miter;stroke-opacity:1"
       id="flowRoot4136"
       xml:space="preserve"><flowRegion
         id="flowRegion4138"><rect
           style="font-style:normal;font-variant:normal;font-weight:normal;font-stretch:normal;font-family:'Trajan Pro 3';-inkscape-font-specification:'Trajan Pro 3, '"
           y="51.42857"
           x="91.428574"
           height="117.14286"
           width="388.57144"
           id="rect4140" /></flowRegion><flowPara
         id="flowPara4142"
         style="font-size:10px;line-height:1.25"> </flowPara></flowRoot>    <flowRoot
       transform="matrix(0.26458334,0,0,0.26458334,-58.459936,115.92228)"
       style="font-style:normal;font-weight:normal;line-height:0.01%;font-family:sans-serif;letter-spacing:0px;word-spacing:0px;fill:#000000;fill-opacity:1;stroke:none;stroke-width:1px;stroke-linecap:butt;stroke-linejoin:miter;stroke-opacity:1"
       id="flowRoot5341"
       xml:space="preserve"><flowRegion
         id="flowRegion5343"><rect
           y="35.537983"
           x="323.24881"
           height="72.478447"
           width="7.8286824"
           id="rect5345" /></flowRegion><flowPara
         id="flowPara5347"
         style="font-size:10px;line-height:1.25"> </flowPara></flowRoot>    <g
       id="layer2"
       inkscape:label="Layer 2"
       transform="matrix(0.26458334,0,0,0.26458334,-59.404877,294.76305)" />
    <g
       aria-label=" "
       style="line-height:0%;opacity:1;fill:#ffffff;fill-opacity:1;stroke:none;stroke-width:2;stroke-miterlimit:4;stroke-dasharray:none;stroke-opacity:1"
       id="text8831" />
    <g
       style="font-size:2.64583373px;opacity:1;fill:#ff5200;fill-opacity:1;stroke:none;stroke-width:2;stroke-miterlimit:4;stroke-dasharray:none;stroke-opacity:1"
       id="text11704"
       transform="translate(-4.194995,1.3609152)">
      <path
         d="m 18.392834,206.20968 v 0.70668 h 0.41858 q 0.210581,0 0.31135,-0.0866 0.102061,-0.0879 0.102061,-0.26743 0,-0.18086 -0.102061,-0.26613 -0.100769,-0.0866 -0.31135,-0.0866 h -0.41858 z m 0,-0.79323 v 0.58136 h 0.386282 q 0.191203,0 0.28422,-0.0711 0.09431,-0.0723 0.09431,-0.21962 0,-0.14599 -0.09431,-0.21834 -0.09302,-0.0723 -0.28422,-0.0723 z m -0.260966,-0.21446 h 0.666626 q 0.298432,0 0.459921,0.12402 0.161489,0.12403 0.161489,0.3527 0,0.17699 -0.08268,0.28163 -0.08268,0.10465 -0.242879,0.13049 0.192495,0.0413 0.298432,0.17311 0.107228,0.13048 0.107228,0.32685 0,0.25839 -0.1757,0.39921 -0.1757,0.14081 -0.499969,0.14081 h -0.692465 v -1.92882 z"
         id="path11709"
         inkscape:connector-curvature="0"
         style="fill:#ff5200;fill-opacity:1" />
    </g>
    <g
       style="font-size:2.64583373px;opacity:1;fill:#ff5200;fill-opacity:1;stroke:none;stroke-width:2;stroke-miterlimit:4;stroke-dasharray:none;stroke-opacity:1"
       id="text11748"
       transform="translate(1.4033578,2.2551783)">
      <path
         d="m 17.220719,204.44725 q -0.284221,0 -0.452169,0.21187 -0.166657,0.21188 -0.166657,0.57749 0,0.36432 0.166657,0.57619 0.167948,0.21187 0.452169,0.21187 0.28422,0 0.449585,-0.21187 0.166656,-0.21187 0.166656,-0.57619 0,-0.36561 -0.166656,-0.57749 -0.165365,-0.21187 -0.449585,-0.21187 z m 0,-0.21187 q 0.40566,0 0.648539,0.27259 0.242879,0.2713 0.242879,0.72864 0,0.45604 -0.242879,0.72864 -0.242879,0.2713 -0.648539,0.2713 -0.406952,0 -0.651124,-0.2713 -0.242879,-0.27131 -0.242879,-0.72864 0,-0.45734 0.242879,-0.72864 0.244172,-0.27259 0.651124,-0.27259 z"
         id="path11753"
         inkscape:connector-curvature="0"
         style="fill:#ff5200;fill-opacity:1" />
      <path
         d="m 18.490667,204.27026 h 0.262258 v 1.17176 q 0,0.31006 0.112396,0.447 0.112397,0.13565 0.364319,0.13565 0.250631,0 0.363027,-0.13565 0.112396,-0.13694 0.112396,-0.447 v -1.17176 h 0.262258 v 1.20406 q 0,0.37724 -0.187327,0.56973 -0.186035,0.1925 -0.550354,0.1925 -0.365611,0 -0.552938,-0.1925 -0.186035,-0.19249 -0.186035,-0.56973 z"
         id="path11755"
         inkscape:connector-curvature="0"
         style="fill:#ff5200;fill-opacity:1" />
      <path
         d="m 20.190822,204.27026 h 1.631683 v 0.21962 h -0.684713 v 1.7092 h -0.262258 v -1.7092 h -0.684712 z"
         id="path11757"
         inkscape:connector-curvature="0"
         style="fill:#ff5200;fill-opacity:1" />
    </g>
    <g
       aria-label="STS"
       style="font-style:normal;font-variant:normal;font-weight:normal;font-stretch:normal;font-size:4.72947598px;line-height:1.25;font-family:Arial;-inkscape-font-specification:'Arial, Normal';font-variant-ligatures:normal;font-variant-caps:normal;font-variant-numeric:normal;text-align:center;letter-spacing:0px;word-spacing:0px;writing-mode:lr-tb;text-anchor:middle;fill:#ff5200;fill-opacity:1;stroke:none;stroke-width:0.88677669"
       id="text1061"
       transform="translate(0,-1.6572801)">
      <path
         d="m 7.5335625,293.30977 0.4226045,-0.0369 q 0.030021,0.25403 0.1385589,0.41799 0.1108471,0.16165 0.3417785,0.26326 0.2309314,0.0993 0.5195958,0.0993 0.2563339,0 0.4526256,-0.0762 0.1962917,-0.0762 0.2909736,-0.20784 0.096991,-0.13394 0.096991,-0.29098 0,-0.15934 -0.092373,-0.27711 -0.092373,-0.12009 -0.3048295,-0.20091 -0.1362495,-0.0531 -0.602731,-0.16397 -0.4664816,-0.11315 -0.653536,-0.21245 -0.242478,-0.12701 -0.3625624,-0.31407 -0.117775,-0.18936 -0.117775,-0.4226 0,-0.25634 0.1454868,-0.47803 0.1454868,-0.22401 0.4249138,-0.33947 0.2794271,-0.11547 0.6212056,-0.11547 0.3764183,0 0.6627733,0.1224 0.2886643,0.12008 0.4433883,0.35563 0.1547237,0.23555 0.1662707,0.53345 l -0.4295325,0.0323 q -0.03464,-0.32099 -0.2355501,-0.48495 -0.198601,-0.16396 -0.5888752,-0.16396 -0.4064393,0 -0.5934938,0.1501 -0.1847451,0.1478 -0.1847451,0.35795 0,0.18243 0.1316309,0.30021 0.1293216,0.11777 0.6743198,0.24247 0.5473075,0.1224 0.7505272,0.21477 0.2955922,0.13625 0.4364598,0.3464 0.140868,0.20784 0.140868,0.48033 0,0.27019 -0.154724,0.51036 -0.1547233,0.23786 -0.4456969,0.3718 -0.2886643,0.13163 -0.6512267,0.13163 -0.4595536,0 -0.771311,-0.13394 -0.3094482,-0.13394 -0.4872654,-0.40182 -0.1755079,-0.27019 -0.1847451,-0.60966 z"
         style="fill:#ff5200;fill-opacity:1;stroke-width:0.88677669"
         id="path1113"
         inkscape:connector-curvature="0" />
      <path
         d="m 11.706494,294.39746 v -2.98594 h -1.115399 v -0.39951 h 2.683423 v 0.39951 h -1.120017 v 2.98594 z"
         style="fill:#ff5200;fill-opacity:1;stroke-width:0.88677669"
         id="path1115"
         inkscape:connector-curvature="0" />
      <path
         d="m 13.583966,293.30977 0.422605,-0.0369 q 0.03002,0.25403 0.138558,0.41799 0.110848,0.16165 0.341779,0.26326 0.230931,0.0993 0.519596,0.0993 0.256334,0 0.452625,-0.0762 0.196292,-0.0762 0.290974,-0.20784 0.09699,-0.13394 0.09699,-0.29098 0,-0.15934 -0.09237,-0.27711 -0.09237,-0.12009 -0.30483,-0.20091 -0.136249,-0.0531 -0.602731,-0.16397 -0.466481,-0.11315 -0.653536,-0.21245 -0.242478,-0.12701 -0.362562,-0.31407 -0.117775,-0.18936 -0.117775,-0.4226 0,-0.25634 0.145486,-0.47803 0.145487,-0.22401 0.424914,-0.33947 0.279427,-0.11547 0.621206,-0.11547 0.376418,0 0.662773,0.1224 0.288664,0.12008 0.443389,0.35563 0.154724,0.23555 0.16627,0.53345 l -0.429532,0.0323 q -0.03464,-0.32099 -0.23555,-0.48495 -0.198601,-0.16396 -0.588876,-0.16396 -0.406439,0 -0.593493,0.1501 -0.184746,0.1478 -0.184746,0.35795 0,0.18243 0.131631,0.30021 0.129322,0.11777 0.67432,0.24247 0.547308,0.1224 0.750527,0.21477 0.295593,0.13625 0.436461,0.3464 0.140868,0.20784 0.140868,0.48033 0,0.27019 -0.154724,0.51036 -0.154724,0.23786 -0.445698,0.3718 -0.288664,0.13163 -0.651226,0.13163 -0.459554,0 -0.771311,-0.13394 -0.309449,-0.13394 -0.487266,-0.40182 -0.175508,-0.27019 -0.184745,-0.60966 z"
         style="fill:#ff5200;fill-opacity:1;stroke-width:0.88677669"
         id="path1117"
         inkscape:connector-curvature="0" />
    </g>
    <g
       transform="translate(0.50553891,1.0221052)"
       id="g1071"
       style="font-size:2.64583373px;opacity:1;fill:#ff5200;fill-opacity:1;stroke:none;stroke-width:2;stroke-miterlimit:4;stroke-dasharray:none;stroke-opacity:1">
      <path
         inkscape:connector-curvature="0"
         id="path1069"
         d="M 8.6122506,205.79789 8.258267,206.75778 H 8.9675261 Z M 8.4649728,205.5408 h 0.2958476 l 0.7350973,1.92882 H 9.2246164 l -0.1756999,-0.4948 H 8.1794604 l -0.1756999,0.4948 h -0.275177 z"
         style="fill:#ff5200;fill-opacity:1" />
    </g>
    <g
       aria-label="CV"
       style="font-style:normal;font-variant:normal;font-weight:normal;font-stretch:normal;font-size:2.7163887px;line-height:1.25;font-family:Arial;-inkscape-font-specification:'Arial, Normal';font-variant-ligatures:normal;font-variant-caps:normal;font-variant-numeric:normal;font-feature-settings:normal;text-align:center;letter-spacing:0px;word-spacing:0px;writing-mode:lr-tb;text-anchor:middle;fill:#ff5200;fill-opacity:1;stroke:none;stroke-width:0.26458332"
       id="text1075"
       transform="translate(0,0.66767814)">
      <path
         d="m 3.0552797,207.14476 0.2573142,0.065 q -0.080908,0.317 -0.2917996,0.48412 -0.2095651,0.1658 -0.513302,0.1658 -0.3143477,0 -0.5119756,-0.12733 -0.1963015,-0.12866 -0.2997577,-0.37139 -0.1021299,-0.24272 -0.1021299,-0.52126 0,-0.30373 0.1153935,-0.52921 0.1167198,-0.22681 0.3302641,-0.34353 0.2148706,-0.11805 0.4721847,-0.11805 0.2917996,0 0.4907538,0.14855 0.1989543,0.14856 0.2772096,0.41781 l -0.253335,0.0597 q -0.067645,-0.21222 -0.1963016,-0.30905 -0.1286571,-0.0968 -0.3236322,-0.0968 -0.2241551,0 -0.3753604,0.10743 -0.1498788,0.10744 -0.2108915,0.28915 -0.061013,0.18039 -0.061013,0.37271 0,0.24803 0.071624,0.43372 0.07295,0.18436 0.2254815,0.27588 0.1525316,0.0915 0.3302641,0.0915 0.2161969,0 0.3660758,-0.12468 0.1498788,-0.12468 0.2029333,-0.37005 z"
         style="font-style:normal;font-variant:normal;font-weight:normal;font-stretch:normal;font-size:2.7163887px;font-family:Arial;-inkscape-font-specification:'Arial, Normal';font-variant-ligatures:normal;font-variant-caps:normal;font-variant-numeric:normal;font-feature-settings:normal;text-align:center;writing-mode:lr-tb;text-anchor:middle;fill:#ff5200;fill-opacity:1;stroke-width:0.26458332"
         id="path1077"
         inkscape:connector-curvature="0" />
      <path
         d="m 4.1866663,207.82651 -0.7533735,-1.94445 h 0.278536 l 0.5053438,1.41258 q 0.061013,0.16977 0.1021298,0.31832 0.045096,-0.15916 0.1047826,-0.31832 l 0.5252392,-1.41258 h 0.2626196 l -0.7613316,1.94445 z"
         style="font-style:normal;font-variant:normal;font-weight:normal;font-stretch:normal;font-size:2.7163887px;font-family:Arial;-inkscape-font-specification:'Arial, Normal';font-variant-ligatures:normal;font-variant-caps:normal;font-variant-numeric:normal;font-feature-settings:normal;text-align:center;writing-mode:lr-tb;text-anchor:middle;fill:#ff5200;fill-opacity:1;stroke-width:0.26458332"
         id="path1079"
         inkscape:connector-curvature="0" />
    </g>
    <path
       style="display:inline;opacity:1;fill:#606060;fill-opacity:1;stroke:none;stroke-width:3.15136623;stroke-miterlimit:4;stroke-dasharray:none;stroke-opacity:1"
       d="m 17.876064,208.7831 h 4.917678 c 0.174663,0 0.315276,4.06066 0.315276,9.10463 v 59.66356 c 0,5.04398 -0.140613,9.10463 -0.315276,9.10463 h -4.917678 c -0.174663,0 -0.315277,-4.06065 -0.315277,-9.10463 v -59.66356 c 0,-5.04397 0.140614,-9.10463 0.315277,-9.10463 z"
       id="rect8839"
       inkscape:connector-curvature="0" />
    <g
       aria-label="2 -&gt; 1 x 11
A/B SWITCH"
       transform="scale(0.97097748,1.02989)"
       style="font-style:normal;font-variant:normal;font-weight:normal;font-stretch:normal;font-size:2.3720026px;line-height:1.25;font-family:Arial;-inkscape-font-specification:'Arial, Normal';font-variant-ligatures:normal;font-variant-caps:normal;font-variant-numeric:normal;text-align:center;letter-spacing:0px;word-spacing:0px;writing-mode:lr-tb;text-anchor:middle;fill:#ff5200;fill-opacity:1;stroke:none;stroke-width:0.44475043"
       id="text1624">
      <path
         d="m 7.9165467,196.05057 v 0.30229 H 6.7757154 q 0.018531,-0.17141 0.1111876,-0.3243 0.092656,-0.15404 0.3659926,-0.40769 0.2200589,-0.205 0.2698616,-0.27796 0.067176,-0.10077 0.067176,-0.19922 0,-0.10887 -0.059068,-0.16678 -0.05791,-0.0591 -0.1609904,-0.0591 -0.101922,0 -0.1621486,0.0614 -0.060227,0.0614 -0.069492,0.20384 l -0.3242972,-0.0324 q 0.028955,-0.2687 0.181838,-0.38568 0.152883,-0.11698 0.3822075,-0.11698 0.2513304,0 0.3949477,0.13551 0.1436173,0.13551 0.1436173,0.33704 0,0.11466 -0.041695,0.2189 -0.040537,0.10308 -0.1297189,0.21658 -0.059068,0.0753 -0.2131096,0.21659 -0.1540412,0.1413 -0.1957366,0.18763 -0.040537,0.0463 -0.066018,0.0903 z"
         style="font-style:normal;font-variant:normal;font-weight:bold;font-stretch:normal;font-size:2.3720026px;font-family:Arial;-inkscape-font-specification:'Arial, Bold';font-variant-ligatures:normal;font-variant-caps:normal;font-variant-numeric:normal;font-feature-settings:normal;text-align:center;writing-mode:lr-tb;text-anchor:middle;fill:#ff5200;fill-opacity:1;stroke-width:0.44475043"
         inkscape:connector-curvature="0"
         id="path1659" />
      <path
         d="m 8.8280536,195.9 v -0.32545 H 9.4673824 V 195.9 Z"
         style="font-style:normal;font-variant:normal;font-weight:bold;font-stretch:normal;font-size:2.3720026px;font-family:Arial;-inkscape-font-specification:'Arial, Bold';font-variant-ligatures:normal;font-variant-caps:normal;font-variant-numeric:normal;font-feature-settings:normal;text-align:center;writing-mode:lr-tb;text-anchor:middle;fill:#ff5200;fill-opacity:1;stroke-width:0.44475043"
         inkscape:connector-curvature="0"
         id="path1661" />
      <path
         d="m 9.5971012,196.1606 v -0.32777 l 0.8130598,-0.31967 -0.8130598,-0.31619 v -0.32545 l 1.1651538,0.50381 v 0.27797 z"
         style="font-style:normal;font-variant:normal;font-weight:bold;font-stretch:normal;font-size:2.3720026px;font-family:Arial;-inkscape-font-specification:'Arial, Bold';font-variant-ligatures:normal;font-variant-caps:normal;font-variant-numeric:normal;font-feature-settings:normal;text-align:center;writing-mode:lr-tb;text-anchor:middle;fill:#ff5200;fill-opacity:1;stroke-width:0.44475043"
         inkscape:connector-curvature="0"
         id="path1663" />
      <path
         d="m 12.463657,196.35286 h -0.325455 v -1.22654 q -0.178364,0.16678 -0.420428,0.2467 v -0.29534 q 0.127402,-0.0417 0.27681,-0.15752 0.149409,-0.11698 0.205003,-0.27218 h 0.26407 z"
         style="font-style:normal;font-variant:normal;font-weight:bold;font-stretch:normal;font-size:2.3720026px;font-family:Arial;-inkscape-font-specification:'Arial, Bold';font-variant-ligatures:normal;font-variant-caps:normal;font-variant-numeric:normal;font-feature-settings:normal;text-align:center;writing-mode:lr-tb;text-anchor:middle;fill:#ff5200;fill-opacity:1;stroke-width:0.44475043"
         inkscape:connector-curvature="0"
         id="path1665" />
      <path
         d="m 13.522256,196.35286 0.443593,-0.63354 -0.425061,-0.59647 h 0.397264 l 0.217742,0.33819 0.229325,-0.33819 h 0.382207 l -0.416954,0.58257 0.455175,0.64744 h -0.399581 l -0.250172,-0.38105 -0.252488,0.38105 z"
         style="font-style:normal;font-variant:normal;font-weight:bold;font-stretch:normal;font-size:2.3720026px;font-family:Arial;-inkscape-font-specification:'Arial, Bold';font-variant-ligatures:normal;font-variant-caps:normal;font-variant-numeric:normal;font-feature-settings:normal;text-align:center;writing-mode:lr-tb;text-anchor:middle;fill:#ff5200;fill-opacity:1;stroke-width:0.44475043"
         inkscape:connector-curvature="0"
         id="path1667" />
      <path
         d="m 16.420084,196.35286 h -0.325456 v -1.22654 q -0.178363,0.16678 -0.420428,0.2467 v -0.29534 q 0.127403,-0.0417 0.276811,-0.15752 0.149408,-0.11698 0.205002,-0.27218 h 0.264071 z"
         style="font-style:normal;font-variant:normal;font-weight:bold;font-stretch:normal;font-size:2.3720026px;font-family:Arial;-inkscape-font-specification:'Arial, Bold';font-variant-ligatures:normal;font-variant-caps:normal;font-variant-numeric:normal;font-feature-settings:normal;text-align:center;writing-mode:lr-tb;text-anchor:middle;fill:#ff5200;fill-opacity:1;stroke-width:0.44475043"
         inkscape:connector-curvature="0"
         id="path1669" />
      <path
         d="m 17.610718,196.35286 h -0.325456 v -1.22654 q -0.178363,0.16678 -0.420428,0.2467 v -0.29534 q 0.127403,-0.0417 0.276811,-0.15752 0.149408,-0.11698 0.205002,-0.27218 h 0.264071 z"
         style="font-style:normal;font-variant:normal;font-weight:bold;font-stretch:normal;font-size:2.3720026px;font-family:Arial;-inkscape-font-specification:'Arial, Bold';font-variant-ligatures:normal;font-variant-caps:normal;font-variant-numeric:normal;font-feature-settings:normal;text-align:center;writing-mode:lr-tb;text-anchor:middle;fill:#ff5200;fill-opacity:1;stroke-width:0.44475043"
         inkscape:connector-curvature="0"
         id="path1671" />
      <path
         d="M 7.0096727,199.31786 H 6.6367309 L 6.4884807,198.93218 H 5.8097729 l -0.1401427,0.38568 H 5.305954 l 0.6613347,-1.69792 h 0.362518 z M 6.3784513,198.6461 6.144494,198.01604 5.9151695,198.6461 Z"
         style="font-style:normal;font-variant:normal;font-weight:bold;font-stretch:normal;font-size:2.3720026px;font-family:Arial;-inkscape-font-specification:'Arial, Bold';font-variant-ligatures:normal;font-variant-caps:normal;font-variant-numeric:normal;font-feature-settings:normal;text-align:center;writing-mode:lr-tb;text-anchor:middle;fill:#ff5200;fill-opacity:1;stroke-width:0.44475043"
         inkscape:connector-curvature="0"
         id="path1673" />
      <path
         d="m 7.016622,199.34682 0.4204282,-1.75584 h 0.2443811 l -0.425061,1.75584 z"
         style="font-style:normal;font-variant:normal;font-weight:bold;font-stretch:normal;font-size:2.3720026px;font-family:Arial;-inkscape-font-specification:'Arial, Bold';font-variant-ligatures:normal;font-variant-caps:normal;font-variant-numeric:normal;font-feature-settings:normal;text-align:center;writing-mode:lr-tb;text-anchor:middle;fill:#ff5200;fill-opacity:1;stroke-width:0.44475043"
         inkscape:connector-curvature="0"
         id="path1675" />
      <path
         d="m 7.8516873,197.61994 h 0.6787078 q 0.2015275,0 0.2999749,0.0174 0.099606,0.0162 0.1772053,0.0695 0.078758,0.0533 0.1308771,0.14246 0.052119,0.088 0.052119,0.19805 0,0.1193 -0.06486,0.2189 -0.063701,0.0996 -0.1737306,0.14941 0.1551994,0.0452 0.2385901,0.15404 0.083391,0.10887 0.083391,0.25597 0,0.11582 -0.054436,0.22585 -0.053277,0.10887 -0.147092,0.17488 -0.092656,0.0649 -0.2293244,0.0799 -0.085707,0.009 -0.413479,0.0116 h -0.577944 z m 0.3428285,0.2826 v 0.39263 h 0.2246917 q 0.2003693,0 0.2490139,-0.006 0.088024,-0.0104 0.1378263,-0.0602 0.050961,-0.051 0.050961,-0.13319 0,-0.0788 -0.044012,-0.12741 -0.042853,-0.0498 -0.1285606,-0.0602 -0.050961,-0.006 -0.2930258,-0.006 z m 0,0.67523 v 0.45402 h 0.317348 q 0.1853127,0 0.2351155,-0.0104 0.076441,-0.0139 0.1239279,-0.0672 0.048644,-0.0544 0.048644,-0.14478 0,-0.0764 -0.037062,-0.12972 -0.037062,-0.0533 -0.107713,-0.0776 -0.069492,-0.0243 -0.3034496,-0.0243 z"
         style="font-style:normal;font-variant:normal;font-weight:bold;font-stretch:normal;font-size:2.3720026px;font-family:Arial;-inkscape-font-specification:'Arial, Bold';font-variant-ligatures:normal;font-variant-caps:normal;font-variant-numeric:normal;font-feature-settings:normal;text-align:center;writing-mode:lr-tb;text-anchor:middle;fill:#ff5200;fill-opacity:1;stroke-width:0.44475043"
         inkscape:connector-curvature="0"
         id="path1677" />
      <path
         d="m 10.135666,198.7654 0.333563,-0.0324 q 0.03011,0.16794 0.121612,0.2467 0.09266,0.0788 0.249014,0.0788 0.165623,0 0.249014,-0.0695 0.08455,-0.0707 0.08455,-0.16446 0,-0.0602 -0.0359,-0.10192 -0.03475,-0.0429 -0.12277,-0.0741 -0.06023,-0.0208 -0.274494,-0.0741 -0.275653,-0.0683 -0.38684,-0.16794 -0.156358,-0.14015 -0.156358,-0.34167 0,-0.12972 0.07297,-0.24207 0.07413,-0.1135 0.211951,-0.17257 0.138985,-0.0591 0.334722,-0.0591 0.319664,0 0.480654,0.14014 0.162149,0.14015 0.170256,0.3741 l -0.342828,0.0151 q -0.02201,-0.13088 -0.09497,-0.18763 -0.07181,-0.0579 -0.216584,-0.0579 -0.149408,0 -0.233957,0.0614 -0.05444,0.0394 -0.05444,0.1054 0,0.0602 0.05096,0.10308 0.06486,0.0544 0.315032,0.11351 0.250172,0.0591 0.369467,0.12277 0.120453,0.0625 0.187629,0.17257 0.06833,0.10887 0.06833,0.26986 0,0.14593 -0.08107,0.27334 -0.08108,0.1274 -0.229325,0.18994 -0.14825,0.0614 -0.369467,0.0614 -0.321981,0 -0.494553,-0.14825 -0.172573,-0.14941 -0.206161,-0.43433 z"
         style="font-style:normal;font-variant:normal;font-weight:bold;font-stretch:normal;font-size:2.3720026px;font-family:Arial;-inkscape-font-specification:'Arial, Bold';font-variant-ligatures:normal;font-variant-caps:normal;font-variant-numeric:normal;font-feature-settings:normal;text-align:center;writing-mode:lr-tb;text-anchor:middle;fill:#ff5200;fill-opacity:1;stroke-width:0.44475043"
         inkscape:connector-curvature="0"
         id="path1679" />
      <path
         d="m 12.047862,199.31786 -0.405371,-1.69792 h 0.350936 l 0.255963,1.16631 0.310399,-1.16631 h 0.407688 l 0.297658,1.186 0.260596,-1.186 h 0.345145 l -0.412321,1.69792 h -0.363676 l -0.338196,-1.26939 -0.337037,1.26939 z"
         style="font-style:normal;font-variant:normal;font-weight:bold;font-stretch:normal;font-size:2.3720026px;font-family:Arial;-inkscape-font-specification:'Arial, Bold';font-variant-ligatures:normal;font-variant-caps:normal;font-variant-numeric:normal;font-feature-settings:normal;text-align:center;writing-mode:lr-tb;text-anchor:middle;fill:#ff5200;fill-opacity:1;stroke-width:0.44475043"
         inkscape:connector-curvature="0"
         id="path1681" />
      <path
         d="m 14.034183,199.31786 v -1.69792 h 0.342828 v 1.69792 z"
         style="font-style:normal;font-variant:normal;font-weight:bold;font-stretch:normal;font-size:2.3720026px;font-family:Arial;-inkscape-font-specification:'Arial, Bold';font-variant-ligatures:normal;font-variant-caps:normal;font-variant-numeric:normal;font-feature-settings:normal;text-align:center;writing-mode:lr-tb;text-anchor:middle;fill:#ff5200;fill-opacity:1;stroke-width:0.44475043"
         inkscape:connector-curvature="0"
         id="path1683" />
      <path
         d="m 15.084674,199.31786 v -1.41069 h -0.503819 v -0.28723 h 1.349308 v 0.28723 h -0.502661 v 1.41069 z"
         style="font-style:normal;font-variant:normal;font-weight:bold;font-stretch:normal;font-size:2.3720026px;font-family:Arial;-inkscape-font-specification:'Arial, Bold';font-variant-ligatures:normal;font-variant-caps:normal;font-variant-numeric:normal;font-feature-settings:normal;text-align:center;writing-mode:lr-tb;text-anchor:middle;fill:#ff5200;fill-opacity:1;stroke-width:0.44475043"
         inkscape:connector-curvature="0"
         id="path1685" />
      <path
         d="m 17.238934,198.69359 0.332405,0.1054 q -0.07644,0.27797 -0.254805,0.41348 -0.177205,0.13435 -0.450541,0.13435 -0.338196,0 -0.555939,-0.23048 -0.217742,-0.23165 -0.217742,-0.63238 0,-0.42391 0.218901,-0.65786 0.2189,-0.23512 0.575627,-0.23512 0.311557,0 0.506136,0.18415 0.11582,0.10888 0.17373,0.31272 l -0.339354,0.0811 q -0.03011,-0.13203 -0.126244,-0.20847 -0.09497,-0.0764 -0.231641,-0.0764 -0.188787,0 -0.306924,0.13551 -0.116979,0.13551 -0.116979,0.43896 0,0.32198 0.115821,0.45864 0.11582,0.13667 0.301133,0.13667 0.136668,0 0.235115,-0.0869 0.09845,-0.0869 0.141301,-0.27334 z"
         style="font-style:normal;font-variant:normal;font-weight:bold;font-stretch:normal;font-size:2.3720026px;font-family:Arial;-inkscape-font-specification:'Arial, Bold';font-variant-ligatures:normal;font-variant-caps:normal;font-variant-numeric:normal;font-feature-settings:normal;text-align:center;writing-mode:lr-tb;text-anchor:middle;fill:#ff5200;fill-opacity:1;stroke-width:0.44475043"
         inkscape:connector-curvature="0"
         id="path1687" />
      <path
         d="m 17.867839,199.31786 v -1.69792 h 0.342828 v 0.66828 h 0.671759 v -0.66828 h 0.342828 v 1.69792 h -0.342828 v -0.74241 h -0.671759 v 0.74241 z"
         style="font-style:normal;font-variant:normal;font-weight:bold;font-stretch:normal;font-size:2.3720026px;font-family:Arial;-inkscape-font-specification:'Arial, Bold';font-variant-ligatures:normal;font-variant-caps:normal;font-variant-numeric:normal;font-feature-settings:normal;text-align:center;writing-mode:lr-tb;text-anchor:middle;fill:#ff5200;fill-opacity:1;stroke-width:0.44475043"
         inkscape:connector-curvature="0"
         id="path1689" />
    </g>
  </g>
  <g
     inkscape:groupmode="layer"
     id="layer3"
     inkscape:label="widgets"
     style="display:none">
    <rect
       style="display:inline;opacity:1;fill:#ff0200;fill-opacity:1;stroke:none;stroke-width:1;stroke-miterlimit:4;stroke-dasharray:none;stroke-opacity:1"
       id="rect5091"
       width="5.6426449"
       height="5.5571499"
       x="22.004379"
       y="51.120346" />
    <rect
       style="display:inline;opacity:1;fill:#00ff00;fill-opacity:1;stroke:none;stroke-width:1;stroke-miterlimit:4;stroke-dasharray:none;stroke-opacity:1"
       id="rect5093"
       width="5.2151713"
       height="5.2151713"
       x="22.084158"
       y="45.009415" />
    <rect
       style="display:inline;opacity:1;fill:#0000ff;fill-opacity:1;stroke:none;stroke-width:1;stroke-miterlimit:4;stroke-dasharray:none;stroke-opacity:1"
       id="rect4969"
       width="5.3861609"
       height="5.3861609"
       x="22.38339"
       y="83.223175" />
    <rect
       style="display:inline;opacity:1;fill:#00ff00;fill-opacity:1;stroke:none;stroke-width:1;stroke-miterlimit:4;stroke-dasharray:none;stroke-opacity:1"
       id="rect4975"
       width="5.3546834"
       height="5.5909305"
       x="2.3290534"
       y="75.108711" />
    <rect
       style="display:inline;opacity:1;fill:#00ff00;fill-opacity:1;stroke:none;stroke-width:1;stroke-miterlimit:4;stroke-dasharray:none;stroke-opacity:1"
       id="rect4979"
       width="5.5571499"
       height="5.5571499"
       x="2.4403408"
       y="44.95977" />
    <rect
       style="display:inline;opacity:1;fill:#00ff00;fill-opacity:1;stroke:none;stroke-width:1;stroke-miterlimit:4;stroke-dasharray:none;stroke-opacity:1"
       id="rect4981"
       width="5.7281394"
       height="5.7281394"
       x="11.818956"
       y="44.461246" />
    <rect
       style="display:inline;opacity:1;fill:#00ff00;fill-opacity:1;stroke:none;stroke-width:1;stroke-miterlimit:4;stroke-dasharray:none;stroke-opacity:1"
       id="rect4983"
       width="5.8136339"
       height="5.8136339"
       x="21.57119"
       y="27.209215" />
    <rect
       style="display:inline;opacity:1;fill:#00ff00;fill-opacity:1;stroke:none;stroke-width:1;stroke-miterlimit:4;stroke-dasharray:none;stroke-opacity:1"
       id="rect4989"
       width="5.5571499"
       height="5.5571499"
       x="12.466015"
       y="27.43049" />
    <rect
       style="display:inline;opacity:1;fill:#00ff00;fill-opacity:1;stroke:none;stroke-width:1;stroke-miterlimit:4;stroke-dasharray:none;stroke-opacity:1"
       id="rect4991"
       width="5.3006663"
       height="5.3006663"
       x="2.3290534"
       y="17.041332" />
    <rect
       style="display:inline;opacity:1;fill:#00ff00;fill-opacity:1;stroke:none;stroke-width:1;stroke-miterlimit:4;stroke-dasharray:none;stroke-opacity:1"
       id="rect5041"
       width="5.7281394"
       height="5.7281394"
       x="2.7565265"
       y="27.470434" />
    <rect
       style="display:inline;opacity:1;fill:#ff0000;fill-opacity:1;stroke:none;stroke-width:1;stroke-miterlimit:4;stroke-dasharray:none;stroke-opacity:1"
       id="rect5043"
       width="5.7281394"
       height="5.7281394"
       x="2.7565265"
       y="34.256905" />
    <rect
       style="display:inline;opacity:1;fill:#ff0000;fill-opacity:1;stroke:none;stroke-width:1;stroke-miterlimit:4;stroke-dasharray:none;stroke-opacity:1"
       id="rect5045"
       width="5.0441828"
       height="5.3861609"
       x="12.722499"
       y="34.045975" />
    <rect
       style="display:inline;opacity:1;fill:#ff0000;fill-opacity:1;stroke:none;stroke-width:1;stroke-miterlimit:4;stroke-dasharray:none;stroke-opacity:1"
       id="rect5047"
       width="5.3861609"
       height="5.3861609"
       x="21.784927"
       y="34.081181" />
    <rect
       style="display:inline;opacity:1;fill:#ff0000;fill-opacity:1;stroke:none;stroke-width:1;stroke-miterlimit:4;stroke-dasharray:none;stroke-opacity:1"
       id="rect5049"
       width="5.4716558"
       height="5.4716558"
       x="12.20437"
       y="51.205566" />
    <rect
       style="display:inline;opacity:1;fill:#ff0000;fill-opacity:1;stroke:none;stroke-width:1;stroke-miterlimit:4;stroke-dasharray:none;stroke-opacity:1"
       id="rect5053"
       width="5.3006663"
       height="5.4716558"
       x="12.046068"
       y="77.941887" />
    <rect
       style="display:inline;opacity:1;fill:#00ff00;fill-opacity:1;stroke:none;stroke-width:1;stroke-miterlimit:4;stroke-dasharray:none;stroke-opacity:1"
       id="rect4923"
       width="5.6426449"
       height="5.4586453"
       x="2.3290534"
       y="83.479645" />
    <rect
       style="display:inline;opacity:1;fill:#ff0000;fill-opacity:1;stroke:none;stroke-width:1;stroke-miterlimit:4;stroke-dasharray:none;stroke-opacity:1"
       id="rect4945"
       width="5.2151713"
       height="5.2151713"
       x="10.15766"
       y="17.126818" />
    <rect
       style="display:inline;opacity:1;fill:#0000ff;fill-opacity:1;stroke:none;stroke-width:1;stroke-miterlimit:4;stroke-dasharray:none;stroke-opacity:1"
       id="rect4947"
       width="5.6302543"
       height="5.4716554"
       x="22.38339"
       y="74.894981" />
    <rect
       style="display:inline;opacity:1;fill:#00ff00;fill-opacity:1;stroke:none;stroke-width:1;stroke-miterlimit:4;stroke-dasharray:none;stroke-opacity:1"
       id="rect5332"
       width="5.4716558"
       height="5.4716558"
       x="2.2228601"
       y="10.316954" />
  </g>
</svg>
